#N canvas 542 103 1247 716 10;
#X obj 236 246 coll;
#C restore;
#N canvas 0 50 1008 714 loadasciidata 0;
#X obj 104 320 textfile;
#X msg 232 332 bang;
#X msg 262 426 rewind;
#X obj 308 200 until;
#X msg 309 166 128;
#X obj 434 93 bng 15 250 50 0 empty empty empty 0 -6 0 8 -262144 -1
-1;
#X obj 332 139 t b b b b b;
#X msg 435 186 0;
#X msg 404 290 read ascii4pd.txt;
#X obj 84 565 list trim;
#X msg 451 363 clear;
#X obj 337 84 inlet;
#X obj 168 687 outlet;
#X obj 404 479 f;
#X obj 410 522 t f f;
#X obj 440 551 + 1;
#X obj 131 432 t a b;
#X obj 83 506 list prepend store;
#X obj 107 480 list prepend store;
#X connect 0 0 16 0;
#X connect 1 0 0 0;
#X connect 2 0 0 0;
#X connect 3 0 1 0;
#X connect 4 0 3 0;
#X connect 5 0 6 0;
#X connect 6 0 4 0;
#X connect 6 1 2 0;
#X connect 6 2 8 0;
#X connect 6 3 10 0;
#X connect 6 4 7 0;
#X connect 7 0 13 1;
#X connect 8 0 0 0;
#X connect 9 0 12 0;
#X connect 10 0 12 0;
#X connect 11 0 6 0;
#X connect 13 0 14 0;
#X connect 14 0 18 1;
#X connect 14 1 15 0;
#X connect 15 0 13 1;
#X connect 16 0 18 0;
#X connect 16 1 13 0;
#X connect 17 0 9 0;
#X connect 18 0 17 0;
#X restore 43 140 pd loadasciidata;
#X obj 43 92 bng 15 250 50 0 empty empty empty 0 -6 0 8 -262144 -1
-1;
#X msg 36 197 open;
#X obj 237 310 route special;
#X obj 283 -58 inlet;
#X obj 76 774 outlet;
#X obj 289 36 drip;
#X obj 291 63 moses 0;
#X obj 342 102 moses 128;
#X obj 771 538 outlet;
#X obj 239 -5 route bang float list;
#X obj 146 466 demultiplex 0 1;
#X obj 388 463 demultiplex 0 1;
#X obj 465 295 loadbang;
#N canvas 0 50 1247 910 stream2message 0;
#X obj 17 40 inlet;
#X obj 230 45 inlet;
#X text 13 15 atoms \, bang outputs;
#X obj 374 365 repack 1024;
#X obj 363 670 list prepend;
#X obj 180 688 lister;
#X msg 283 453 list;
#X obj 356 397 route bang;
#X obj 179 729 route bang;
#X msg 132 464 list;
#X obj 361 699 t a a;
#X obj 473 491 list2symbol;
#X obj 473 455 t a b;
#X msg 540 458 symbol;
#X obj 222 769 outlet;
#X msg 87 155 bang;
#X text 227 20 atoms \, bang puts a space;
#X obj 53 114 route bang list;
#X obj 231 99 route bang list;
#X obj 192 234 print ERROR;
#X msg 171 191 stream2message does not take lists!;
#X obj 714 280 t b a;
#X obj 687 343 f;
#X obj 687 369 + 1;
#X obj 687 399 t f f;
#X obj 833 446 f;
#X obj 832 388 b;
#X msg 560 330 0;
#X obj 833 479 sel 0;
#X obj 473 573 demultiplex 0 1;
#X msg 863 508 1;
#X obj 761 395 f;
#X obj 761 421 + 1;
#X obj 761 451 t f f;
#X obj 757 490 sel 1;
#X msg 919 555 1;
#X obj 160 287 t b b b b;
#X obj 324 277 t b b;
#X obj 398 267 t a a;
#X obj 749 314 route float;
#X msg 885 394 1;
#X obj 442 604 symbol2list;
#X obj 786 343 sel . -;
#X connect 0 0 17 0;
#X connect 1 0 18 0;
#X connect 3 0 7 0;
#X connect 4 0 10 0;
#X connect 5 0 8 0;
#X connect 6 0 4 1;
#X connect 7 1 12 0;
#X connect 8 1 14 0;
#X connect 9 0 5 0;
#X connect 10 0 5 1;
#X connect 10 1 4 1;
#X connect 11 0 29 0;
#X connect 12 0 11 0;
#X connect 12 1 13 0;
#X connect 13 0 11 1;
#X connect 15 0 36 0;
#X connect 17 0 15 0;
#X connect 17 1 20 0;
#X connect 17 2 38 0;
#X connect 18 0 37 0;
#X connect 18 1 20 0;
#X connect 18 2 38 0;
#X connect 20 0 19 0;
#X connect 21 0 22 0;
#X connect 21 1 39 0;
#X connect 22 0 23 0;
#X connect 23 0 24 0;
#X connect 24 0 25 1;
#X connect 24 1 22 1;
#X connect 25 0 28 0;
#X connect 26 0 25 0;
#X connect 27 0 22 1;
#X connect 27 0 31 1;
#X connect 27 0 29 1;
#X connect 27 0 25 1;
#X connect 28 1 30 0;
#X connect 29 0 41 0;
#X connect 29 1 4 0;
#X connect 30 0 29 1;
#X connect 31 0 32 0;
#X connect 32 0 33 0;
#X connect 33 0 34 0;
#X connect 33 1 31 1;
#X connect 34 1 35 0;
#X connect 35 0 29 1;
#X connect 36 0 6 0;
#X connect 36 0 9 0;
#X connect 36 1 5 0;
#X connect 36 2 27 0;
#X connect 36 3 3 0;
#X connect 37 0 27 0;
#X connect 37 1 3 0;
#X connect 38 0 3 0;
#X connect 38 1 21 0;
#X connect 39 1 42 0;
#X connect 40 0 29 1;
#X connect 41 0 4 0;
#X connect 42 0 31 0;
#X connect 42 1 26 0;
#X connect 42 2 40 0;
#X restore 479 684 pd stream2message;
#X msg 480 614 bang;
#X msg 633 623 bang;
#X obj 690 135 inlet;
#X obj 36 -51 cnv 15 15 15 empty empty empty 20 12 0 14 -1 -66577 0
;
#N canvas 0 50 797 556 emptyarg 0;
#X obj 57 126 symbol \$1;
#X obj 80 189 sel symbol;
#X obj 46 75 t b b;
#X msg 143 131 symbol;
#X obj 38 48 inlet;
#X obj 82 285 outlet;
#X obj 166 303 outlet;
#X obj 313 44 inlet;
#X connect 0 0 1 0;
#X connect 1 0 5 0;
#X connect 1 1 6 0;
#X connect 2 0 0 0;
#X connect 2 1 3 0;
#X connect 3 0 1 1;
#X connect 4 0 2 0;
#X connect 7 0 0 0;
#X restore 465 328 pd emptyarg;
#X msg 467 355 0;
#X obj 526 355 t s b;
#X msg 555 380 1;
#X obj 673 185 symbol;
#X obj 505 482 symbol;
#X obj 572 519 sel SPACE;
#X msg 637 552 \$1;
#X obj 519 513 sel CR;
#X obj 644 583 t a b;
#X obj 523 564 t b b;
#X obj 391 783 outlet MESSAGE_ENDED;
#X text 57 -52 Version 3.2;
#X obj 92 358 print;
#X connect 0 0 4 0;
#X connect 1 0 0 0;
#X connect 2 0 1 0;
#X connect 3 0 0 0;
#X connect 4 0 13 0;
#X connect 4 1 12 0;
#X connect 5 0 11 0;
#X connect 7 0 8 0;
#X connect 8 0 10 0;
#X connect 8 1 9 0;
#X connect 9 0 0 0;
#X connect 9 1 10 0;
#X connect 11 0 16 0;
#X connect 11 1 7 0;
#X connect 11 2 7 0;
#X connect 11 3 10 0;
#X connect 12 0 6 0;
#X connect 12 1 15 0;
#X connect 13 0 6 0;
#X connect 13 1 25 0;
#X connect 14 0 20 0;
#X connect 15 0 6 0;
#X connect 16 0 15 0;
#X connect 17 0 15 1;
#X connect 18 0 24 0;
#X connect 20 0 21 0;
#X connect 20 1 22 0;
#X connect 21 0 12 1;
#X connect 21 0 13 1;
#X connect 22 0 28 1;
#X connect 22 1 23 0;
#X connect 23 0 13 1;
#X connect 23 0 12 1;
#X connect 24 0 20 1;
#X connect 25 0 28 0;
#X connect 26 0 17 0;
#X connect 26 1 27 0;
#X connect 27 0 29 0;
#X connect 28 0 30 0;
#X connect 28 1 26 0;
#X connect 29 0 6 0;
#X connect 29 1 16 0;
#X connect 30 0 31 0;
#X connect 30 1 16 0;
