#N canvas 420 171 831 477 10;
#X obj 513 212 print ERROR;
#X obj 402 179 convert.ascii2pd CR;
#N canvas 401 151 905 623 in&out 0;
#X obj 114 116 list-extend;
#X obj 191 77 sel 10;
#X msg 386 56 51 56 48 32 45 49 50 53 52 52 32 55 54 55 50 32 45 51
51 32 49 49 54 32 45 50 49 51 13;
#X obj 190 157 prepend set;
#X obj 193 236 gate;
#X msg 126 209 0;
#X msg 160 207 1;
#X obj 116 30 inlet;
#X obj 198 268 outlet;
#X obj 87 80 route 10;
#X connect 0 0 3 0;
#X connect 1 0 0 1;
#X connect 1 0 6 0;
#X connect 1 0 2 0;
#X connect 1 1 5 0;
#X connect 2 0 4 1;
#X connect 3 0 2 0;
#X connect 4 0 8 0;
#X connect 5 0 4 0;
#X connect 6 0 4 0;
#X connect 7 0 1 0;
#X connect 7 0 9 0;
#X connect 9 1 0 0;
#X restore 402 142 pd in&out;
#X obj 377 258 unpack 0 0 0 0 0 0 0;
#X floatatom 322 297 5 0 0 0 - - -;
#X floatatom 362 297 5 0 0 0 - - -;
#X floatatom 406 297 5 0 0 0 - - -;
#X msg 348 48 devices;
#X floatatom 455 328 5 0 0 0 - - -;
#X floatatom 497 329 5 0 0 0 - - -;
#X floatatom 536 329 5 0 0 0 - - -;
#X obj 402 107 comport 0 115200;
#X msg 229 97 close;
#X text 63 42 comment;
#X text 63 388 ACHTUNG: Die Datei "convert.ascii2pd.pd" muss im gleichen
Verzeichniss wie dieser patch liegen!;
#X text 41 52 WAMTAN 0.1beta;
#X text 431 58 < Hier klicken um die vorhandenen seriellen Ports zu
zeigen (Console!);
#X text 514 261 comment;
#X text 535 180 comment;
#X text 501 113 comment;
#X text 500 101 comment;
#X text 520 104 < hier ggf die Nummer des Comports ändern!;
#X text 476 143 < hier gehts zum subpatch (its messy!!);
#X text 237 297 Winkel X Y Z;
#X text 260 351 comment;
#X text 323 330 Beschleunigung X Y Z;
#X msg 494 505 hallo;
#X msg 229 74 open 3;
#X obj 655 330 s controller;
#X connect 1 0 3 0;
#X connect 1 2 0 0;
#X connect 2 0 1 0;
#X connect 3 0 4 0;
#X connect 3 1 5 0;
#X connect 3 2 6 0;
#X connect 3 3 8 0;
#X connect 3 4 9 0;
#X connect 3 5 10 0;
#X connect 7 0 11 0;
#X connect 11 0 2 0;
#X connect 12 0 11 0;
#X connect 27 0 11 0;
