#N canvas 202 82 489 381 10;
#X floatatom 189 314 8 0 0 0 - - -, f 8;
#X obj 189 237 \$0;
#X obj 189 206 bng 15 250 50 0 empty empty empty 17 7 0 10 -262144
-1 -1;
#X obj 189 292 expr size("$s1");
#N canvas 366 50 679 710 read 0;
#X obj 36 241 phasor~;
#X obj 36 127 expr~ pow(2 \, ($v1/12));
#X obj 36 200 /~;
#X obj 51 179 /~ 1000;
#X obj 36 327 *~;
#X obj 61 305 *~ 44.1;
#X obj 36 416 +~;
#X obj 51 390 *~ 44.1;
#X obj 51 368 samphold~;
#X obj 51 486 cos~;
#X obj 51 508 *~ -0.5;
#X obj 51 530 +~ 0.5;
#X obj 36 556 *~;
#X obj 176 327 *~;
#X obj 201 305 *~ 44.1;
#X obj 176 416 +~;
#X obj 191 390 *~ 44.1;
#X obj 191 368 samphold~;
#X obj 191 486 cos~;
#X obj 191 508 *~ -0.5;
#X obj 191 530 +~ 0.5;
#X obj 176 556 *~;
#X obj 176 245 +~ 0.5;
#X obj 176 267 wrap~;
#X obj 36 578 +~;
#X obj 36 23 inlet;
#X obj 36 86 line~;
#X obj 305 305 phasor~ 1;
#X obj 326 212 / 1000;
#X obj 326 234 expr 1/$f1;
#X obj 305 419 *~;
#X obj 305 131 line~;
#X obj 305 260 *~ 1;
#X obj 326 178 t f f;
#X obj 36 633 *~;
#X obj 71 612 line~;
#X msg 481 288 0;
#X obj 427 192 t f f;
#X obj 454 219 sel 1;
#X obj 427 168 tgl 15 0 empty empty empty 17 7 0 10 -262144 -1 -1 0
1;
#X obj 36 448 tabread4~ \$0-loop;
#X obj 176 448 tabread4~ \$0-loop;
#X obj 441 475 r \$0-normelizefaktor;
#X obj 394 527 t b f;
#X obj 326 156 r \$0-size;
#X obj 367 565 * 1;
#X obj 394 446 sel 0 1;
#X obj 394 427 tgl 15 0 empty empty empty 17 7 0 10 -262144 -1 -1 0
1;
#X obj 426 497 f;
#X msg 394 497 1;
#X obj 36 663 outlet~;
#X msg 471 58 1;
#X obj 471 31 loadbang;
#X obj 454 245 t b b;
#X obj 481 266 del 2;
#X msg 71 589 \$1 20;
#X obj 367 325 pipe 2;
#X obj 193 160 t b b;
#X obj 193 183 del 2;
#X msg 193 208 0;
#X msg 236 184 0.2;
#X obj 367 347 t f f;
#X obj 394 372 sel 1;
#X obj 394 398 f;
#X obj 305 375 +~ 0;
#X obj 305 397 wrap~;
#X obj 305 341 *~;
#X obj 305 282 *~;
#X obj 538 182 line~;
#X obj 471 80 t f f;
#X obj 354 264 expr~ 1/$v1;
#X obj 538 212 max~ 0.001;
#X obj 36 48 route transp tempo play winsize startpos norm abschnitt
;
#X obj 106 157 sig~ 100;
#X connect 0 0 4 0;
#X connect 0 0 8 1;
#X connect 0 0 9 0;
#X connect 0 0 22 0;
#X connect 1 0 2 0;
#X connect 2 0 0 0;
#X connect 3 0 2 1;
#X connect 4 0 6 0;
#X connect 5 0 4 1;
#X connect 6 0 40 0;
#X connect 7 0 6 1;
#X connect 8 0 7 0;
#X connect 9 0 10 0;
#X connect 10 0 11 0;
#X connect 11 0 12 1;
#X connect 12 0 24 0;
#X connect 13 0 15 0;
#X connect 14 0 13 1;
#X connect 15 0 41 0;
#X connect 16 0 15 1;
#X connect 17 0 16 0;
#X connect 18 0 19 0;
#X connect 19 0 20 0;
#X connect 20 0 21 1;
#X connect 21 0 24 1;
#X connect 22 0 23 0;
#X connect 23 0 13 0;
#X connect 23 0 17 1;
#X connect 23 0 18 0;
#X connect 24 0 34 0;
#X connect 25 0 72 0;
#X connect 26 0 1 0;
#X connect 27 0 66 0;
#X connect 28 0 29 0;
#X connect 29 0 32 1;
#X connect 30 0 17 0;
#X connect 30 0 8 0;
#X connect 31 0 32 0;
#X connect 32 0 67 0;
#X connect 33 0 28 0;
#X connect 33 1 30 1;
#X connect 34 0 50 0;
#X connect 35 0 34 1;
#X connect 36 0 27 1;
#X connect 37 0 56 0;
#X connect 37 1 38 0;
#X connect 38 0 53 0;
#X connect 39 0 37 0;
#X connect 40 0 12 0;
#X connect 41 0 21 0;
#X connect 42 0 48 1;
#X connect 43 0 45 0;
#X connect 43 1 45 1;
#X connect 44 0 33 0;
#X connect 45 0 55 0;
#X connect 46 0 49 0;
#X connect 46 1 48 0;
#X connect 47 0 46 0;
#X connect 48 0 43 0;
#X connect 49 0 43 0;
#X connect 51 0 69 0;
#X connect 52 0 51 0;
#X connect 53 0 57 0;
#X connect 53 1 54 0;
#X connect 54 0 36 0;
#X connect 55 0 35 0;
#X connect 56 0 61 0;
#X connect 57 0 58 0;
#X connect 57 1 60 0;
#X connect 58 0 59 0;
#X connect 59 0 0 1;
#X connect 60 0 0 1;
#X connect 61 0 45 0;
#X connect 61 1 62 0;
#X connect 62 0 63 0;
#X connect 63 0 47 0;
#X connect 64 0 65 0;
#X connect 65 0 30 0;
#X connect 66 0 64 0;
#X connect 67 0 27 0;
#X connect 68 0 71 0;
#X connect 69 0 31 0;
#X connect 69 1 68 0;
#X connect 70 0 67 1;
#X connect 71 0 70 0;
#X connect 71 0 66 1;
#X connect 72 0 26 0;
#X connect 72 1 31 0;
#X connect 72 2 39 0;
#X connect 72 3 73 0;
#X connect 72 4 64 1;
#X connect 72 5 63 0;
#X connect 72 6 68 0;
#X connect 73 0 3 0;
#X connect 73 0 5 0;
#X connect 73 0 14 0;
#X restore 96 276 pd read;
#N canvas 198 82 551 607 write 1;
#X obj 31 105 tgl 15 0 empty empty empty 17 7 0 10 -262144 -1 -1 0
1;
#X obj 31 126 sel 0 1;
#X obj 96 361 writesf~ 1;
#X msg 176 192 start;
#X msg 58 241 stop;
#X obj 31 466 soundfiler;
#N canvas 0 50 450 278 (subpatch) 0;
#X array \$0-loop 47616 float 2;
#X coords 0 1 47616 -1 200 140 1 0 0;
#X restore 305 44 graph;
#X floatatom 46 360 5 0 0 0 - - -, f 5;
#X obj 46 318 bng 15 250 50 0 empty empty empty 17 7 0 10 -262144 -1
-1;
#X obj 31 382 f;
#X obj 46 292 loadbang;
#X floatatom 31 541 5 0 0 0 - - -, f 5;
#X obj 110 328 *~;
#X obj 125 304 line~;
#X obj 125 257 tgl 15 0 empty empty empty 17 7 0 10 -262144 -1 -1 0
1;
#X obj 31 170 t b b;
#X obj 31 220 t b b;
#X msg 90 193 0;
#X obj 146 167 t b b b;
#X msg 146 192 1;
#X obj 31 193 del 20;
#X msg 125 281 \$1 20;
#X obj 31 488 t f f;
#X obj 197 505 / 44.1;
#X obj 31 264 del 5;
#X obj 31 80 inlet;
#X obj 110 33 inlet~;
#X floatatom 197 528 5 0 0 0 - - -, f 5;
#X obj 46 338 \$0;
#X obj 221 192 \$0;
#N canvas 628 50 265 562 normalizefaktor 0;
#X obj 53 36 inlet;
#X obj 53 106 until;
#X obj 53 193 t f f;
#X msg 53 144 1;
#X obj 53 166 +;
#X msg 102 147 0;
#X floatatom 53 220 5 0 0 0 - - -, f 5;
#X obj 53 273 abs;
#X obj 53 407 t f f;
#X obj 53 356 sel 1;
#X obj 53 383 f;
#X obj 53 334 > 0;
#X obj 53 303 t f f;
#X floatatom 53 434 5 0 0 0 - - -, f 5;
#X obj 53 483 outlet;
#X obj 53 72 t f b b;
#X msg 145 315 0;
#X obj 53 459 expr 1/$f1;
#X obj 53 246 tabread \$0-loop;
#X connect 0 0 15 0;
#X connect 1 0 3 0;
#X connect 2 0 6 0;
#X connect 2 1 4 1;
#X connect 3 0 4 0;
#X connect 4 0 2 0;
#X connect 5 0 4 1;
#X connect 6 0 18 0;
#X connect 7 0 12 0;
#X connect 8 0 13 0;
#X connect 8 1 11 1;
#X connect 9 0 10 0;
#X connect 10 0 8 0;
#X connect 11 0 9 0;
#X connect 12 0 11 0;
#X connect 12 1 10 1;
#X connect 13 0 17 0;
#X connect 15 0 1 0;
#X connect 15 1 5 0;
#X connect 15 2 16 0;
#X connect 16 0 11 1;
#X connect 17 0 14 0;
#X connect 18 0 7 0;
#X restore 31 519 pd normalizefaktor;
#X obj 31 559 s \$0-normelizefaktor;
#X obj 197 550 s \$0-size;
#X msg 221 224 open /tmp/\$1-loop.wav;
#X msg 31 437 read -resize /tmp/\$1-loop.wav \$1-loop;
#X connect 0 0 1 0;
#X connect 1 0 15 0;
#X connect 1 1 18 0;
#X connect 3 0 2 0;
#X connect 4 0 2 0;
#X connect 5 0 22 0;
#X connect 7 0 9 1;
#X connect 8 0 28 0;
#X connect 9 0 34 0;
#X connect 10 0 8 0;
#X connect 11 0 31 0;
#X connect 12 0 2 0;
#X connect 13 0 12 1;
#X connect 14 0 21 0;
#X connect 15 0 20 0;
#X connect 15 1 17 0;
#X connect 16 0 24 0;
#X connect 16 1 4 0;
#X connect 17 0 14 0;
#X connect 18 0 19 0;
#X connect 18 1 3 0;
#X connect 18 2 29 0;
#X connect 19 0 14 0;
#X connect 20 0 16 0;
#X connect 21 0 13 0;
#X connect 22 0 30 0;
#X connect 22 1 23 0;
#X connect 23 0 27 0;
#X connect 24 0 9 0;
#X connect 25 0 0 0;
#X connect 26 0 12 0;
#X connect 27 0 32 0;
#X connect 28 0 7 0;
#X connect 29 0 33 0;
#X connect 30 0 11 0;
#X connect 33 0 2 0;
#X connect 34 0 5 0;
#X restore 45 193 pd write;
#X text 124 70 Start/Stop Tempo Dauer(relativ/absolut) Pitch?;
#X obj 45 164 tgl 15 0 empty empty empty 17 7 0 10 -262144 -1 -1 0
1;
#X obj 130 108 inlet~;
#X obj 96 309 outlet~;
#X obj 45 106 inlet;
#X obj 45 135 route rec;
#X msg 189 269 symbol \$1-loop;
#X connect 1 0 12 0;
#X connect 2 0 1 0;
#X connect 3 0 0 0;
#X connect 4 0 9 0;
#X connect 7 0 5 0;
#X connect 8 0 5 1;
#X connect 10 0 11 0;
#X connect 11 0 7 0;
#X connect 11 1 4 0;
#X connect 12 0 3 0;
