#N canvas 223 319 450 300 10;
#X obj 81 34 inlet;
#X obj 82 65 moses \$1;
#X obj 127 91 moses \$2;
#X obj 172 115 moses \$3;
#X obj 82 149 * 5;
#X obj 127 149 * 20;
#X obj 172 149 * 50;
#X obj 82 211 outlet;
#X connect 0 0 1 0;
#X connect 1 0 4 0;
#X connect 1 1 2 0;
#X connect 2 0 5 0;
#X connect 2 1 3 0;
#X connect 3 0 6 0;
#X connect 4 0 7 0;
#X connect 5 0 7 0;
#X connect 6 0 7 0;
