#N canvas 393 88 758 412 10;
#X obj 410 242 line~;
#X msg 410 214 \$1 100;
#X floatatom 410 191 5 0 0 0 - - -, f 5;
#X obj 409 355 throw~ summe;
#X text 469 157 mit etwas delay oder verlangsamung;
#X obj 354 19 adc~ \$1;
#X obj 354 41 delwrite~ \$0-\$1 2000;
#X obj 411 267 t_pitch-shifter \$0-\$1;
#X obj 11 11 cnv 15 300 300 empty empty empty 20 12 0 14 -45076 -66577
0;
#X obj 104 34 vsl 15 128 -18 18 0 0 empty empty pitch 0 -9 0 12 -262144
-1 -257985 0 1;
#X obj 104 166 nbx 5 14 -18 32 0 0 empty empty empty 0 -8 0 10 -262144
-1 -1 0 256;
#X obj 125 145 bng 15 250 50 0 empty empty 0 17 7 0 12 -262144 -1 -257985
;
#X obj 235 36 nbx 2 20 -1e+037 1e+037 0 0 empty \$0-adcnum empty 0
-8 0 16 -257985 -1 -1 1 256;
#X obj 546 27 loadbang;
#X obj 410 296 *~ 0;
#X floatatom 457 291 5 0 0 0 - - -, f 5;
#X msg 409 149 0;
#X obj 107 251 hsl 128 15 0 1 0 0 empty empty volume -2 -8 0 10 -262144
-1 -257985 0 1;
#X obj 104 266 nbx 5 14 0 1 0 0 empty empty empty 0 -8 0 10 -262144
-1 -1 0 256;
#X obj 546 71 s \$0-adcnum;
#X obj 546 50 \$1;
#X obj 25 35 vu 15 120 empty in -1 -8 0 10 -66577 -257985 1 0;
#X obj 25 177 vu 15 120 empty out -1 -8 0 10 -66577 -257985 1 0;
#X obj 325 354 env~ 8192;
#X obj 325 376 - 100;
#X obj 325 67 env~ 8192;
#X obj 325 89 - 100;
#X connect 0 0 7 0;
#X connect 1 0 0 0;
#X connect 2 0 1 0;
#X connect 5 0 6 0;
#X connect 5 0 25 0;
#X connect 7 0 14 0;
#X connect 9 0 10 0;
#X connect 10 0 2 0;
#X connect 11 0 16 0;
#X connect 13 0 20 0;
#X connect 14 0 3 0;
#X connect 14 0 23 0;
#X connect 15 0 14 1;
#X connect 16 0 9 0;
#X connect 17 0 18 0;
#X connect 18 0 15 0;
#X connect 20 0 19 0;
#X connect 23 0 24 0;
#X connect 24 0 22 0;
#X connect 25 0 26 0;
#X connect 26 0 21 0;
#X coords 0 -1 1 1 300 300 1 10 10;
