#N canvas 232 22 972 733 10;
#X obj 200 399 vd~ \$0-drone;
#X obj 200 -7 adc~ 1;
#X obj 200 178 phasor~;
#X obj 200 542 *~;
#X obj 215 473 cos~;
#X obj 215 495 *~ -0.5;
#X obj 215 517 +~ 0.5;
#X obj 200 155 sig~ 1;
#X obj 272 272 wrap~;
#X obj 200 425 *~;
#X obj 272 304 cos~;
#X obj 272 326 *~ -0.5;
#X obj 272 348 +~ 0.5;
#X obj 200 695 dac~;
#X obj 200 636 *~ 0;
#X obj 231 618 tgl 15 0 empty empty empty 17 7 0 10 -262144 -1 -1 1
1;
#N canvas 0 22 450 278 (subpatch) 0;
#X array array1 100 float 3;
#A 0 0.0125308 0.0140344 0.0151728 0.0160404 0.0166967 0.0176353 0.0189028
0.0198521 0.0200703 0.0202949 0.0207825 0.0220542 0.0239524 0.0265145
0.0289304 0.0316234 0.0343946 0.0371957 0.0401121 0.042106 0.0431742
0.0431077 0.0420895 0.0407054 0.0389701 0.0369244 0.0341171 0.0306535
0.0272761 0.0243576 0.0217083 0.0185902 0.0159017 0.013354 0.0110535
0.00927893 0.00798075 0.00688504 0.00589834 0.00452214 0.00341926 0.00281173
0.00146797 1.73522e-05 -0.00162489 -0.00386328 -0.00604537 -0.0081048
-0.0102195 -0.0118866 -0.013468 -0.0146447 -0.0145946 -0.0133177 -0.0106811
-0.00741027 -0.00363971 0.000497875 0.00457088 0.00822658 0.0108378
0.0123041 0.0122269 0.0113472 0.0110785 0.0109849 0.0112079 0.0118055
0.0124923 0.012478 0.0115587 0.00990133 0.00709023 0.00295643 -0.00178488
-0.00640551 -0.0106517 -0.0147805 -0.0181275 -0.0206959 -0.0233337
-0.0258964 -0.0272714 -0.0280854 -0.0281322 -0.0282486 -0.0284057 -0.0283994
-0.0281551 -0.0278513 -0.0271148 -0.0263442 -0.0252411 -0.0242499 -0.0231602
-0.0219649 -0.021055 -0.0201137 -0.0199498 -0.02023;
#X coords 0 1 99 -1 200 140 1;
#X restore 715 26 graph;
#X obj 546 95 tabwrite~ array1;
#X obj 546 53 metro 100;
#X obj 546 33 tgl 15 0 empty empty empty 17 7 0 10 -262144 -1 -1 1
1;
#X obj 200 371 *~ 1000;
#X obj 200 339 -~;
#X obj 272 250 *~ 10;
#X obj 330 399 vd~ \$0-drone;
#X obj 402 272 wrap~;
#X obj 330 425 *~;
#X obj 402 304 cos~;
#X obj 402 326 *~ -0.5;
#X obj 402 348 +~ 0.5;
#X obj 330 371 *~ 1000;
#X obj 330 339 -~;
#X obj 345 300 /~ 10;
#X obj 402 250 +~ 0.5;
#X obj 200 447 +~;
#X obj 490 399 vd~ \$0-drone;
#X obj 490 542 *~;
#X obj 505 473 cos~;
#X obj 505 495 *~ -0.5;
#X obj 505 517 +~ 0.5;
#X obj 562 272 wrap~;
#X obj 490 425 *~;
#X obj 562 304 cos~;
#X obj 562 326 *~ -0.5;
#X obj 562 348 +~ 0.5;
#X obj 490 371 *~ 1000;
#X obj 490 339 -~;
#X obj 505 300 /~ 10;
#X obj 562 250 *~ 10;
#X obj 620 399 vd~ \$0-drone;
#X obj 692 272 wrap~;
#X obj 620 425 *~;
#X obj 692 304 cos~;
#X obj 692 326 *~ -0.5;
#X obj 692 348 +~ 0.5;
#X obj 620 371 *~ 1000;
#X obj 620 339 -~;
#X obj 635 300 /~ 10;
#X obj 692 250 +~ 0.5;
#X obj 490 447 +~;
#X obj 490 208 wrap~;
#X obj 490 175 +~ 0.5;
#X obj 200 564 +~;
#X floatatom 200 106 5 0 0 0 - - -, f 5;
#X obj 215 300 /~ 10;
#X obj 200 28 *~ 1;
#X obj 200 74 delwrite~ \$0-drone 8000;
#X obj 336 122 expr 1000/$f1;
#X obj 336 164 t f f f f;
#X floatatom 336 144 5 0 0 0 - - -, f 5;
#X floatatom 85 174 5 0 0 0 - - -, f 5;
#X obj 569 218 t f f f;
#X obj 280 216 t f f f f;
#X obj 85 199 i;
#X obj 200 125 t f f f;
#X obj 85 258 expr 1/$f1;
#X obj 85 221 t f f;
#X floatatom 85 280 5 0 0 0 - - -, f 5;
#X obj 84 358 * 10;
#X floatatom 105 314 5 0 0 0 - - -, f 5;
#X obj 103 334 t b f;
#X text 92 143 5;
#X text 128 290 2, f 2;
#X connect 0 0 9 0;
#X connect 1 0 64 0;
#X connect 2 0 4 0;
#X connect 2 0 21 0;
#X connect 2 0 22 0;
#X connect 2 0 30 0;
#X connect 2 0 60 0;
#X connect 3 0 61 0;
#X connect 4 0 5 0;
#X connect 5 0 6 0;
#X connect 6 0 3 1;
#X connect 7 0 2 0;
#X connect 8 0 10 0;
#X connect 8 0 32 0;
#X connect 8 0 63 0;
#X connect 9 0 33 0;
#X connect 10 0 11 0;
#X connect 11 0 12 0;
#X connect 12 0 9 1;
#X connect 14 0 13 0;
#X connect 14 0 13 1;
#X connect 15 0 14 1;
#X connect 18 0 17 0;
#X connect 19 0 18 0;
#X connect 20 0 0 0;
#X connect 21 0 20 0;
#X connect 22 0 8 0;
#X connect 23 0 25 0;
#X connect 24 0 26 0;
#X connect 24 0 31 0;
#X connect 25 0 33 1;
#X connect 26 0 27 0;
#X connect 27 0 28 0;
#X connect 28 0 25 1;
#X connect 29 0 23 0;
#X connect 30 0 29 0;
#X connect 31 0 30 1;
#X connect 32 0 24 0;
#X connect 33 0 3 0;
#X connect 34 0 40 0;
#X connect 35 0 61 1;
#X connect 36 0 37 0;
#X connect 37 0 38 0;
#X connect 38 0 35 1;
#X connect 39 0 41 0;
#X connect 39 0 46 0;
#X connect 39 0 57 0;
#X connect 40 0 58 0;
#X connect 41 0 42 0;
#X connect 42 0 43 0;
#X connect 43 0 40 1;
#X connect 44 0 34 0;
#X connect 45 0 44 0;
#X connect 46 0 45 1;
#X connect 47 0 39 0;
#X connect 48 0 50 0;
#X connect 49 0 51 0;
#X connect 49 0 56 0;
#X connect 50 0 58 1;
#X connect 51 0 52 0;
#X connect 52 0 53 0;
#X connect 53 0 50 1;
#X connect 54 0 48 0;
#X connect 55 0 54 0;
#X connect 56 0 55 1;
#X connect 57 0 49 0;
#X connect 58 0 35 0;
#X connect 59 0 36 0;
#X connect 59 0 45 0;
#X connect 59 0 47 0;
#X connect 59 0 55 0;
#X connect 60 0 59 0;
#X connect 61 0 14 0;
#X connect 62 0 73 0;
#X connect 63 0 21 1;
#X connect 64 0 17 0;
#X connect 64 0 65 0;
#X connect 66 0 68 0;
#X connect 67 0 20 1;
#X connect 67 1 29 1;
#X connect 67 2 44 1;
#X connect 67 3 54 1;
#X connect 68 0 67 0;
#X connect 69 0 72 0;
#X connect 70 0 46 1;
#X connect 70 1 47 1;
#X connect 70 2 56 1;
#X connect 71 0 63 1;
#X connect 71 1 22 1;
#X connect 71 2 31 1;
#X connect 71 3 70 0;
#X connect 72 0 75 0;
#X connect 73 0 7 0;
#X connect 73 1 66 0;
#X connect 74 0 76 0;
#X connect 75 0 74 0;
#X connect 75 1 71 0;
#X connect 76 0 77 0;
#X connect 77 0 62 0;
#X connect 78 0 79 0;
#X connect 79 0 77 0;
#X connect 79 1 77 1;
