#N canvas 0 50 1366 686 10;
#X obj 169 273 line~;
#X msg 169 245 \$1 100;
#X floatatom 169 222 5 0 0 0 - - -, f 5;
#X obj 144 534 *~;
#X obj 179 513 line~;
#X msg 179 485 \$1 100;
#X floatatom 179 462 5 0 0 0 - - -, f 5;
#X obj 204 426 hsl 128 15 0 1 0 0 empty empty empty -2 -8 0 10 -262144
-1 -1 0 1;
#X obj 143 562 dac~;
#X obj 330 269 line~;
#X msg 330 241 \$1 100;
#X floatatom 330 218 5 0 0 0 - - -, f 5;
#X obj 169 326 throw~ summe;
#X obj 330 326 throw~ summe;
#X obj 91 495 catch~ summe;
#X obj 470 269 line~;
#X msg 470 241 \$1 100;
#X floatatom 470 218 5 0 0 0 - - -, f 5;
#X obj 470 326 throw~ summe;
#X obj 169 298 t_pitch-shifter robert;
#X obj 19 273 line~;
#X msg 19 245 \$1 100;
#X floatatom 19 222 5 0 0 0 - - -, f 5;
#X obj 19 326 throw~ summe;
#X obj 19 298 t_pitch-shifter gesa;
#X obj 330 297 t_pitch-shifter tim;
#X obj 470 297 t_pitch-shifter alrun;
#X obj 620 269 line~;
#X msg 620 241 \$1 100;
#X floatatom 620 218 5 0 0 0 - - -, f 5;
#X obj 620 326 throw~ summe;
#X obj 620 297 t_pitch-shifter niklas;
#X obj 780 269 line~;
#X msg 780 241 \$1 100;
#X floatatom 780 218 5 0 0 0 - - -, f 5;
#X obj 780 326 throw~ summe;
#X obj 940 269 line~;
#X msg 940 241 \$1 100;
#X floatatom 940 218 5 0 0 0 - - -, f 5;
#X obj 940 326 throw~ summe;
#X obj 1090 269 line~;
#X msg 1090 241 \$1 100;
#X floatatom 1090 218 5 0 0 0 - - -, f 5;
#X obj 1090 326 throw~ summe;
#X obj 780 297 t_pitch-shifter felix;
#X obj 940 297 t_pitch-shifter isa;
#X obj 1090 297 t_pitch-shifter paula;
#X obj 116 43 adc~ 1 2 3 4 5 6 7 8;
#X obj 89 165 delwrite~ gesa_l 2000;
#X obj 115 143 delwrite~ robert_l 2000;
#X obj 149 115 delwrite~ tim_l 2000;
#X obj 175 93 delwrite~ alrun_l 2000;
#X obj 279 165 delwrite~ niklas_l 2000;
#X obj 305 143 delwrite~ felix_l 2000;
#X obj 339 115 delwrite~ isa_l 2000;
#X obj 365 93 delwrite~ paula_l 2000;
#X text 572 74 mit etwas delay oder verlangsamung;
#X msg 620 174 0;
#X connect 0 0 19 0;
#X connect 1 0 0 0;
#X connect 2 0 1 0;
#X connect 3 0 8 1;
#X connect 3 0 8 0;
#X connect 4 0 3 1;
#X connect 5 0 4 0;
#X connect 6 0 5 0;
#X connect 7 0 6 0;
#X connect 9 0 25 0;
#X connect 10 0 9 0;
#X connect 11 0 10 0;
#X connect 14 0 3 0;
#X connect 15 0 26 0;
#X connect 16 0 15 0;
#X connect 17 0 16 0;
#X connect 19 0 12 0;
#X connect 20 0 24 0;
#X connect 21 0 20 0;
#X connect 22 0 21 0;
#X connect 24 0 23 0;
#X connect 25 0 13 0;
#X connect 26 0 18 0;
#X connect 27 0 31 0;
#X connect 28 0 27 0;
#X connect 29 0 28 0;
#X connect 31 0 30 0;
#X connect 32 0 44 0;
#X connect 33 0 32 0;
#X connect 34 0 33 0;
#X connect 36 0 45 0;
#X connect 37 0 36 0;
#X connect 38 0 37 0;
#X connect 40 0 46 0;
#X connect 41 0 40 0;
#X connect 42 0 41 0;
#X connect 44 0 35 0;
#X connect 45 0 39 0;
#X connect 46 0 43 0;
#X connect 47 0 48 0;
#X connect 47 1 49 0;
#X connect 47 3 51 0;
#X connect 47 5 53 0;
#X connect 57 0 29 0;
#X connect 57 0 22 0;
#X connect 57 0 2 0;
#X connect 57 0 11 0;
#X connect 57 0 17 0;
#X connect 57 0 34 0;
#X connect 57 0 38 0;
#X connect 57 0 42 0;
