#N canvas 243 249 793 441 10;
#X obj 90 23 adc~;
#X obj 197 74 delwrite~ test_l 1000;
#X obj 173 233 t_pitch-shifter test;
#X obj 207 94 delwrite~ test_r 1000;
#X obj 173 359 dac~;
#X obj 371 296 hsl 128 15 0 1 0 0 empty empty empty -2 -8 0 10 -262144
-1 -1 0 1;
#X msg 368 336 \$1 50;
#X obj 368 358 line~;
#X obj 173 329 *~;
#X floatatom 368 316 5 0 0 0 - - -, f 5;
#X obj 203 329 *~;
#X obj 348 230 t_pitch-shifter test;
#X obj 166 258 throw~ left;
#X obj 126 302 catch~ left;
#X obj 211 300 catch~ right;
#X obj 246 258 throw~ right;
#X obj 346 258 throw~ left;
#X obj 426 258 throw~ right;
#X obj 34 138 hip~ 30;
#X obj 431 123 t_lfn;
#X obj 375 119 t_lfn;
#X obj 375 138 *~ 1;
#X obj 431 164 -~ 3;
#X obj 431 142 *~ 2;
#X obj 375 94 sig~ 1;
#X obj 431 98 sig~ 1;
#X obj 375 160 +~ 7;
#X obj 39 75 delwrite~ signal 5000;
#X obj 298 36 delread~ signal 2000;
#X obj 617 193 t_lfn;
#X obj 617 212 expr~ pow(5 \, $v1);
#X obj 636 292 *~ 500;
#X obj 589 363 vd~ signal;
#X obj 617 168 sig~ 0.2;
#X connect 0 0 27 0;
#X connect 0 0 4 0;
#X connect 0 1 4 1;
#X connect 2 0 12 0;
#X connect 2 1 15 0;
#X connect 5 0 9 0;
#X connect 6 0 7 0;
#X connect 7 0 8 1;
#X connect 7 0 10 1;
#X connect 8 0 4 0;
#X connect 8 0 18 0;
#X connect 9 0 6 0;
#X connect 10 0 4 1;
#X connect 11 0 16 0;
#X connect 11 1 17 0;
#X connect 13 0 8 0;
#X connect 14 0 10 0;
#X connect 18 0 27 0;
#X connect 19 0 23 0;
#X connect 20 0 21 0;
#X connect 21 0 26 0;
#X connect 22 0 11 0;
#X connect 23 0 22 0;
#X connect 24 0 20 0;
#X connect 25 0 19 0;
#X connect 26 0 2 0;
#X connect 29 0 30 0;
#X connect 30 0 31 0;
#X connect 31 0 32 0;
#X connect 32 0 1 0;
#X connect 32 0 3 0;
#X connect 33 0 29 0;
