#N canvas 154 50 978 439 10;
#N canvas 123 22 646 470 RE-VERB 0;
#X obj 81 239 tgl 15 0 empty empty empty 17 7 0 10 -262144 -1 -1 0
1;
#X msg 81 259 rec \$1;
#X obj 151 239 tgl 15 0 empty empty empty 17 7 0 10 -262144 -1 -1 0
1;
#X msg 151 259 play \$1;
#X obj -14 221 env~;
#X obj -14 243 - 100;
#X obj -13 267 vu 15 120 empty empty -1 -8 0 10 -66577 -1 1 0;
#X msg 234 258 norm \$1;
#X obj 234 238 tgl 15 0 empty empty empty 17 7 0 10 -262144 -1 -1 1
1;
#X msg 299 284 tempo \$1;
#X floatatom 299 257 5 0 0 0 - - -, f 5;
#X obj 34 327 loop;
#X obj 132 54 tgl 15 0 empty empty empty 17 7 0 10 -262144 -1 -1 0
1;
#X obj 132 74 t f f;
#X obj 159 103 sel 0;
#X msg 159 177 1;
#X obj 159 199 t f f;
#X obj 242 54 bng 15 250 50 0 empty empty empty 17 7 0 10 -262144 -1
-1;
#X msg 203 204 0;
#X obj 299 207 line;
#X msg 346 161 stop;
#X obj 203 174 del 180000;
#X obj 132 23 inlet;
#X obj 242 23 inlet;
#X obj 159 125 del 80;
#X obj 34 355 *~ 0.6;
#X msg 299 185 2 \, 0 180000;
#X obj 299 229 - 1;
#X msg 419 276 transp \$1;
#X obj 159 147 t b b b b;
#X obj 419 207 line;
#X obj 242 74 t b b b;
#X msg 436 161 stop;
#X obj 223 326 loadbang;
#X floatatom 419 246 5 0 0 0 - - -, f 5;
#X msg 223 346 winsize 120;
#X msg 419 185 0 \, 5 180000;
#X obj 55 192 inlet~;
#X obj 34 388 outlet~;
#X obj 173 384 r alle;
#X connect 0 0 1 0;
#X connect 1 0 11 0;
#X connect 2 0 3 0;
#X connect 3 0 11 0;
#X connect 4 0 5 0;
#X connect 5 0 6 0;
#X connect 7 0 11 0;
#X connect 8 0 7 0;
#X connect 9 0 11 0;
#X connect 10 0 9 0;
#X connect 11 0 25 0;
#X connect 12 0 13 0;
#X connect 13 0 0 0;
#X connect 13 1 14 0;
#X connect 14 0 24 0;
#X connect 15 0 16 0;
#X connect 16 0 2 0;
#X connect 16 1 8 0;
#X connect 17 0 31 0;
#X connect 18 0 2 0;
#X connect 19 0 27 0;
#X connect 20 0 19 0;
#X connect 21 0 18 0;
#X connect 22 0 12 0;
#X connect 23 0 17 0;
#X connect 24 0 29 0;
#X connect 25 0 38 0;
#X connect 26 0 19 0;
#X connect 27 0 10 0;
#X connect 28 0 11 0;
#X connect 29 0 15 0;
#X connect 29 1 26 0;
#X connect 29 2 21 0;
#X connect 29 3 36 0;
#X connect 30 0 34 0;
#X connect 31 0 18 0;
#X connect 31 1 20 0;
#X connect 31 2 32 0;
#X connect 32 0 30 0;
#X connect 33 0 35 0;
#X connect 34 0 28 0;
#X connect 35 0 11 0;
#X connect 36 0 30 0;
#X connect 37 0 4 0;
#X connect 37 0 11 1;
#X connect 39 0 11 0;
#X restore 68 258 pd RE-VERB;
#X obj 96 149 tgl 45 0 empty empty record 0 -7 0 10 -258113 -1 -1 0
1;
#X obj 125 217 bng 30 250 50 0 empty empty stop 0 -7 0 10 -191407 -1
-1;
#X obj 68 282 throw~ sum;
#X obj 70 332 catch~ sum;
#X obj 70 384 dac~ 1 2;
#N canvas 123 22 646 470 RE-VERB 0;
#X obj 81 239 tgl 15 0 empty empty empty 17 7 0 10 -262144 -1 -1 0
1;
#X msg 81 259 rec \$1;
#X obj 151 239 tgl 15 0 empty empty empty 17 7 0 10 -262144 -1 -1 0
1;
#X msg 151 259 play \$1;
#X obj -14 221 env~;
#X obj -14 243 - 100;
#X obj -13 267 vu 15 120 empty empty -1 -8 0 10 -66577 -1 1 0;
#X msg 234 258 norm \$1;
#X obj 234 238 tgl 15 0 empty empty empty 17 7 0 10 -262144 -1 -1 0
1;
#X msg 299 284 tempo \$1;
#X floatatom 299 257 5 0 0 0 - - -, f 5;
#X obj 34 327 loop;
#X obj 132 54 tgl 15 0 empty empty empty 17 7 0 10 -262144 -1 -1 0
1;
#X obj 132 74 t f f;
#X obj 159 103 sel 0;
#X msg 159 177 1;
#X obj 159 199 t f f;
#X obj 242 54 bng 15 250 50 0 empty empty empty 17 7 0 10 -262144 -1
-1;
#X msg 203 204 0;
#X obj 299 207 line;
#X msg 346 161 stop;
#X obj 203 174 del 180000;
#X obj 132 23 inlet;
#X obj 242 23 inlet;
#X obj 159 125 del 80;
#X obj 34 355 *~ 0.6;
#X msg 299 185 2 \, 0 180000;
#X obj 299 229 - 1;
#X msg 419 276 transp \$1;
#X obj 159 147 t b b b b;
#X obj 419 207 line;
#X obj 242 74 t b b b;
#X msg 436 161 stop;
#X obj 223 326 loadbang;
#X floatatom 419 246 5 0 0 0 - - -, f 5;
#X msg 223 346 winsize 120;
#X msg 419 185 0 \, 5 180000;
#X obj 55 192 inlet~;
#X obj 34 388 outlet~;
#X obj 173 384 r alle;
#X connect 0 0 1 0;
#X connect 1 0 11 0;
#X connect 2 0 3 0;
#X connect 3 0 11 0;
#X connect 4 0 5 0;
#X connect 5 0 6 0;
#X connect 7 0 11 0;
#X connect 8 0 7 0;
#X connect 9 0 11 0;
#X connect 10 0 9 0;
#X connect 11 0 25 0;
#X connect 12 0 13 0;
#X connect 13 0 0 0;
#X connect 13 1 14 0;
#X connect 14 0 24 0;
#X connect 15 0 16 0;
#X connect 16 0 2 0;
#X connect 16 1 8 0;
#X connect 17 0 31 0;
#X connect 18 0 2 0;
#X connect 19 0 27 0;
#X connect 20 0 19 0;
#X connect 21 0 18 0;
#X connect 22 0 12 0;
#X connect 23 0 17 0;
#X connect 24 0 29 0;
#X connect 25 0 38 0;
#X connect 26 0 19 0;
#X connect 27 0 10 0;
#X connect 28 0 11 0;
#X connect 29 0 15 0;
#X connect 29 1 26 0;
#X connect 29 2 21 0;
#X connect 29 3 36 0;
#X connect 30 0 34 0;
#X connect 31 0 18 0;
#X connect 31 1 20 0;
#X connect 31 2 32 0;
#X connect 32 0 30 0;
#X connect 33 0 35 0;
#X connect 34 0 28 0;
#X connect 35 0 11 0;
#X connect 36 0 30 0;
#X connect 37 0 4 0;
#X connect 37 0 11 1;
#X connect 39 0 11 0;
#X restore 148 258 pd RE-VERB;
#X obj 176 149 tgl 45 0 empty empty record 0 -7 0 10 -258113 -1 -1
0 1;
#X obj 205 217 bng 30 250 50 0 empty empty stop 0 -7 0 10 -191407 -1
-1;
#X obj 148 282 throw~ sum;
#N canvas 123 22 646 470 RE-VERB 0;
#X obj 81 239 tgl 15 0 empty empty empty 17 7 0 10 -262144 -1 -1 0
1;
#X msg 81 259 rec \$1;
#X obj 151 239 tgl 15 0 empty empty empty 17 7 0 10 -262144 -1 -1 0
1;
#X msg 151 259 play \$1;
#X obj -14 221 env~;
#X obj -14 243 - 100;
#X obj -13 267 vu 15 120 empty empty -1 -8 0 10 -66577 -1 1 0;
#X msg 234 258 norm \$1;
#X obj 234 238 tgl 15 0 empty empty empty 17 7 0 10 -262144 -1 -1 0
1;
#X msg 299 284 tempo \$1;
#X floatatom 299 257 5 0 0 0 - - -, f 5;
#X obj 34 327 loop;
#X obj 132 54 tgl 15 0 empty empty empty 17 7 0 10 -262144 -1 -1 0
1;
#X obj 132 74 t f f;
#X obj 159 103 sel 0;
#X msg 159 177 1;
#X obj 159 199 t f f;
#X obj 242 54 bng 15 250 50 0 empty empty empty 17 7 0 10 -262144 -1
-1;
#X msg 203 204 0;
#X obj 299 207 line;
#X msg 346 161 stop;
#X obj 203 174 del 180000;
#X obj 132 23 inlet;
#X obj 242 23 inlet;
#X obj 159 125 del 80;
#X obj 34 355 *~ 0.6;
#X msg 299 185 2 \, 0 180000;
#X obj 299 229 - 1;
#X msg 419 276 transp \$1;
#X obj 159 147 t b b b b;
#X obj 419 207 line;
#X obj 242 74 t b b b;
#X msg 436 161 stop;
#X obj 223 326 loadbang;
#X floatatom 419 246 5 0 0 0 - - -, f 5;
#X msg 223 346 winsize 120;
#X msg 419 185 0 \, 5 180000;
#X obj 55 192 inlet~;
#X obj 34 388 outlet~;
#X obj 173 384 r alle;
#X connect 0 0 1 0;
#X connect 1 0 11 0;
#X connect 2 0 3 0;
#X connect 3 0 11 0;
#X connect 4 0 5 0;
#X connect 5 0 6 0;
#X connect 7 0 11 0;
#X connect 8 0 7 0;
#X connect 9 0 11 0;
#X connect 10 0 9 0;
#X connect 11 0 25 0;
#X connect 12 0 13 0;
#X connect 13 0 0 0;
#X connect 13 1 14 0;
#X connect 14 0 24 0;
#X connect 15 0 16 0;
#X connect 16 0 2 0;
#X connect 16 1 8 0;
#X connect 17 0 31 0;
#X connect 18 0 2 0;
#X connect 19 0 27 0;
#X connect 20 0 19 0;
#X connect 21 0 18 0;
#X connect 22 0 12 0;
#X connect 23 0 17 0;
#X connect 24 0 29 0;
#X connect 25 0 38 0;
#X connect 26 0 19 0;
#X connect 27 0 10 0;
#X connect 28 0 11 0;
#X connect 29 0 15 0;
#X connect 29 1 26 0;
#X connect 29 2 21 0;
#X connect 29 3 36 0;
#X connect 30 0 34 0;
#X connect 31 0 18 0;
#X connect 31 1 20 0;
#X connect 31 2 32 0;
#X connect 32 0 30 0;
#X connect 33 0 35 0;
#X connect 34 0 28 0;
#X connect 35 0 11 0;
#X connect 36 0 30 0;
#X connect 37 0 4 0;
#X connect 37 0 11 1;
#X connect 39 0 11 0;
#X restore 228 258 pd RE-VERB;
#X obj 256 149 tgl 45 0 empty empty record 0 -7 0 10 -258113 -1 -1
0 1;
#X obj 285 217 bng 30 250 50 0 empty empty stop 0 -7 0 10 -191407 -1
-1;
#X obj 228 282 throw~ sum;
#N canvas 123 22 646 470 RE-VERB 0;
#X obj 81 239 tgl 15 0 empty empty empty 17 7 0 10 -262144 -1 -1 0
1;
#X msg 81 259 rec \$1;
#X obj 151 239 tgl 15 0 empty empty empty 17 7 0 10 -262144 -1 -1 0
1;
#X msg 151 259 play \$1;
#X obj -14 221 env~;
#X obj -14 243 - 100;
#X obj -13 267 vu 15 120 empty empty -1 -8 0 10 -66577 -1 1 0;
#X msg 234 258 norm \$1;
#X obj 234 238 tgl 15 0 empty empty empty 17 7 0 10 -262144 -1 -1 0
1;
#X msg 299 284 tempo \$1;
#X floatatom 299 257 5 0 0 0 - - -, f 5;
#X obj 34 327 loop;
#X obj 132 54 tgl 15 0 empty empty empty 17 7 0 10 -262144 -1 -1 0
1;
#X obj 132 74 t f f;
#X obj 159 103 sel 0;
#X msg 159 177 1;
#X obj 159 199 t f f;
#X obj 242 54 bng 15 250 50 0 empty empty empty 17 7 0 10 -262144 -1
-1;
#X msg 203 204 0;
#X obj 299 207 line;
#X msg 346 161 stop;
#X obj 203 174 del 180000;
#X obj 132 23 inlet;
#X obj 242 23 inlet;
#X obj 159 125 del 80;
#X obj 34 355 *~ 0.6;
#X msg 299 185 2 \, 0 180000;
#X obj 299 229 - 1;
#X msg 419 276 transp \$1;
#X obj 159 147 t b b b b;
#X obj 419 207 line;
#X obj 242 74 t b b b;
#X msg 436 161 stop;
#X obj 223 326 loadbang;
#X floatatom 419 246 5 0 0 0 - - -, f 5;
#X msg 223 346 winsize 120;
#X msg 419 185 0 \, 5 180000;
#X obj 55 192 inlet~;
#X obj 34 388 outlet~;
#X obj 173 384 r alle;
#X connect 0 0 1 0;
#X connect 1 0 11 0;
#X connect 2 0 3 0;
#X connect 3 0 11 0;
#X connect 4 0 5 0;
#X connect 5 0 6 0;
#X connect 7 0 11 0;
#X connect 8 0 7 0;
#X connect 9 0 11 0;
#X connect 10 0 9 0;
#X connect 11 0 25 0;
#X connect 12 0 13 0;
#X connect 13 0 0 0;
#X connect 13 1 14 0;
#X connect 14 0 24 0;
#X connect 15 0 16 0;
#X connect 16 0 2 0;
#X connect 16 1 8 0;
#X connect 17 0 31 0;
#X connect 18 0 2 0;
#X connect 19 0 27 0;
#X connect 20 0 19 0;
#X connect 21 0 18 0;
#X connect 22 0 12 0;
#X connect 23 0 17 0;
#X connect 24 0 29 0;
#X connect 25 0 38 0;
#X connect 26 0 19 0;
#X connect 27 0 10 0;
#X connect 28 0 11 0;
#X connect 29 0 15 0;
#X connect 29 1 26 0;
#X connect 29 2 21 0;
#X connect 29 3 36 0;
#X connect 30 0 34 0;
#X connect 31 0 18 0;
#X connect 31 1 20 0;
#X connect 31 2 32 0;
#X connect 32 0 30 0;
#X connect 33 0 35 0;
#X connect 34 0 28 0;
#X connect 35 0 11 0;
#X connect 36 0 30 0;
#X connect 37 0 4 0;
#X connect 37 0 11 1;
#X connect 39 0 11 0;
#X restore 308 258 pd RE-VERB;
#X obj 336 149 tgl 45 0 empty empty record 0 -7 0 10 -258113 -1 -1
0 1;
#X obj 365 217 bng 30 250 50 0 empty empty stop 0 -7 0 10 -191407 -1
-1;
#X obj 308 282 throw~ sum;
#N canvas 123 22 646 470 RE-VERB 0;
#X obj 81 239 tgl 15 0 empty empty empty 17 7 0 10 -262144 -1 -1 0
1;
#X msg 81 259 rec \$1;
#X obj 151 239 tgl 15 0 empty empty empty 17 7 0 10 -262144 -1 -1 0
1;
#X msg 151 259 play \$1;
#X obj -14 221 env~;
#X obj -14 243 - 100;
#X obj -13 267 vu 15 120 empty empty -1 -8 0 10 -66577 -1 1 0;
#X msg 234 258 norm \$1;
#X obj 234 238 tgl 15 0 empty empty empty 17 7 0 10 -262144 -1 -1 0
1;
#X msg 299 284 tempo \$1;
#X floatatom 299 257 5 0 0 0 - - -, f 5;
#X obj 34 327 loop;
#X obj 132 54 tgl 15 0 empty empty empty 17 7 0 10 -262144 -1 -1 0
1;
#X obj 132 74 t f f;
#X obj 159 103 sel 0;
#X msg 159 177 1;
#X obj 159 199 t f f;
#X obj 242 54 bng 15 250 50 0 empty empty empty 17 7 0 10 -262144 -1
-1;
#X msg 203 204 0;
#X obj 299 207 line;
#X msg 346 161 stop;
#X obj 203 174 del 180000;
#X obj 132 23 inlet;
#X obj 242 23 inlet;
#X obj 159 125 del 80;
#X obj 34 355 *~ 0.6;
#X msg 299 185 2 \, 0 180000;
#X obj 299 229 - 1;
#X msg 419 276 transp \$1;
#X obj 159 147 t b b b b;
#X obj 419 207 line;
#X obj 242 74 t b b b;
#X msg 436 161 stop;
#X obj 223 326 loadbang;
#X floatatom 419 246 5 0 0 0 - - -, f 5;
#X msg 223 346 winsize 120;
#X msg 419 185 0 \, 5 180000;
#X obj 55 192 inlet~;
#X obj 34 388 outlet~;
#X obj 173 384 r alle;
#X connect 0 0 1 0;
#X connect 1 0 11 0;
#X connect 2 0 3 0;
#X connect 3 0 11 0;
#X connect 4 0 5 0;
#X connect 5 0 6 0;
#X connect 7 0 11 0;
#X connect 8 0 7 0;
#X connect 9 0 11 0;
#X connect 10 0 9 0;
#X connect 11 0 25 0;
#X connect 12 0 13 0;
#X connect 13 0 0 0;
#X connect 13 1 14 0;
#X connect 14 0 24 0;
#X connect 15 0 16 0;
#X connect 16 0 2 0;
#X connect 16 1 8 0;
#X connect 17 0 31 0;
#X connect 18 0 2 0;
#X connect 19 0 27 0;
#X connect 20 0 19 0;
#X connect 21 0 18 0;
#X connect 22 0 12 0;
#X connect 23 0 17 0;
#X connect 24 0 29 0;
#X connect 25 0 38 0;
#X connect 26 0 19 0;
#X connect 27 0 10 0;
#X connect 28 0 11 0;
#X connect 29 0 15 0;
#X connect 29 1 26 0;
#X connect 29 2 21 0;
#X connect 29 3 36 0;
#X connect 30 0 34 0;
#X connect 31 0 18 0;
#X connect 31 1 20 0;
#X connect 31 2 32 0;
#X connect 32 0 30 0;
#X connect 33 0 35 0;
#X connect 34 0 28 0;
#X connect 35 0 11 0;
#X connect 36 0 30 0;
#X connect 37 0 4 0;
#X connect 37 0 11 1;
#X connect 39 0 11 0;
#X restore 388 258 pd RE-VERB;
#X obj 416 149 tgl 45 0 empty empty record 0 -7 0 10 -258113 -1 -1
0 1;
#X obj 445 217 bng 30 250 50 0 empty empty stop 0 -7 0 10 -191407 -1
-1;
#X obj 388 282 throw~ sum;
#N canvas 123 22 646 470 RE-VERB 0;
#X obj 81 239 tgl 15 0 empty empty empty 17 7 0 10 -262144 -1 -1 0
1;
#X msg 81 259 rec \$1;
#X obj 151 239 tgl 15 0 empty empty empty 17 7 0 10 -262144 -1 -1 0
1;
#X msg 151 259 play \$1;
#X obj -14 221 env~;
#X obj -14 243 - 100;
#X obj -13 267 vu 15 120 empty empty -1 -8 0 10 -66577 -1 1 0;
#X msg 234 258 norm \$1;
#X obj 234 238 tgl 15 0 empty empty empty 17 7 0 10 -262144 -1 -1 0
1;
#X msg 299 284 tempo \$1;
#X floatatom 299 257 5 0 0 0 - - -, f 5;
#X obj 34 327 loop;
#X obj 132 54 tgl 15 0 empty empty empty 17 7 0 10 -262144 -1 -1 0
1;
#X obj 132 74 t f f;
#X obj 159 103 sel 0;
#X msg 159 177 1;
#X obj 159 199 t f f;
#X obj 242 54 bng 15 250 50 0 empty empty empty 17 7 0 10 -262144 -1
-1;
#X msg 203 204 0;
#X obj 299 207 line;
#X msg 346 161 stop;
#X obj 203 174 del 180000;
#X obj 132 23 inlet;
#X obj 242 23 inlet;
#X obj 159 125 del 80;
#X obj 34 355 *~ 0.6;
#X msg 299 185 2 \, 0 180000;
#X obj 299 229 - 1;
#X msg 419 276 transp \$1;
#X obj 159 147 t b b b b;
#X obj 419 207 line;
#X obj 242 74 t b b b;
#X msg 436 161 stop;
#X obj 223 326 loadbang;
#X floatatom 419 246 5 0 0 0 - - -, f 5;
#X msg 223 346 winsize 120;
#X msg 419 185 0 \, 5 180000;
#X obj 55 192 inlet~;
#X obj 34 388 outlet~;
#X obj 173 384 r alle;
#X connect 0 0 1 0;
#X connect 1 0 11 0;
#X connect 2 0 3 0;
#X connect 3 0 11 0;
#X connect 4 0 5 0;
#X connect 5 0 6 0;
#X connect 7 0 11 0;
#X connect 8 0 7 0;
#X connect 9 0 11 0;
#X connect 10 0 9 0;
#X connect 11 0 25 0;
#X connect 12 0 13 0;
#X connect 13 0 0 0;
#X connect 13 1 14 0;
#X connect 14 0 24 0;
#X connect 15 0 16 0;
#X connect 16 0 2 0;
#X connect 16 1 8 0;
#X connect 17 0 31 0;
#X connect 18 0 2 0;
#X connect 19 0 27 0;
#X connect 20 0 19 0;
#X connect 21 0 18 0;
#X connect 22 0 12 0;
#X connect 23 0 17 0;
#X connect 24 0 29 0;
#X connect 25 0 38 0;
#X connect 26 0 19 0;
#X connect 27 0 10 0;
#X connect 28 0 11 0;
#X connect 29 0 15 0;
#X connect 29 1 26 0;
#X connect 29 2 21 0;
#X connect 29 3 36 0;
#X connect 30 0 34 0;
#X connect 31 0 18 0;
#X connect 31 1 20 0;
#X connect 31 2 32 0;
#X connect 32 0 30 0;
#X connect 33 0 35 0;
#X connect 34 0 28 0;
#X connect 35 0 11 0;
#X connect 36 0 30 0;
#X connect 37 0 4 0;
#X connect 37 0 11 1;
#X connect 39 0 11 0;
#X restore 468 258 pd RE-VERB;
#X obj 496 149 tgl 45 0 empty empty record 0 -7 0 10 -258113 -1 -1
0 1;
#X obj 525 217 bng 30 250 50 0 empty empty stop 0 -7 0 10 -191407 -1
-1;
#X obj 468 282 throw~ sum;
#N canvas 123 22 646 470 RE-VERB 0;
#X obj 81 239 tgl 15 0 empty empty empty 17 7 0 10 -262144 -1 -1 0
1;
#X msg 81 259 rec \$1;
#X obj 151 239 tgl 15 0 empty empty empty 17 7 0 10 -262144 -1 -1 0
1;
#X msg 151 259 play \$1;
#X obj -14 221 env~;
#X obj -14 243 - 100;
#X obj -13 267 vu 15 120 empty empty -1 -8 0 10 -66577 -1 1 0;
#X msg 234 258 norm \$1;
#X obj 234 238 tgl 15 0 empty empty empty 17 7 0 10 -262144 -1 -1 0
1;
#X msg 299 284 tempo \$1;
#X floatatom 299 257 5 0 0 0 - - -, f 5;
#X obj 34 327 loop;
#X obj 132 54 tgl 15 0 empty empty empty 17 7 0 10 -262144 -1 -1 0
1;
#X obj 132 74 t f f;
#X obj 159 103 sel 0;
#X msg 159 177 1;
#X obj 159 199 t f f;
#X obj 242 54 bng 15 250 50 0 empty empty empty 17 7 0 10 -262144 -1
-1;
#X msg 203 204 0;
#X obj 299 207 line;
#X msg 346 161 stop;
#X obj 203 174 del 180000;
#X obj 132 23 inlet;
#X obj 242 23 inlet;
#X obj 159 125 del 80;
#X obj 34 355 *~ 0.6;
#X msg 299 185 2 \, 0 180000;
#X obj 299 229 - 1;
#X msg 419 276 transp \$1;
#X obj 159 147 t b b b b;
#X obj 419 207 line;
#X obj 242 74 t b b b;
#X msg 436 161 stop;
#X obj 223 326 loadbang;
#X floatatom 419 246 5 0 0 0 - - -, f 5;
#X msg 223 346 winsize 120;
#X msg 419 185 0 \, 5 180000;
#X obj 55 192 inlet~;
#X obj 34 388 outlet~;
#X obj 173 384 r alle;
#X connect 0 0 1 0;
#X connect 1 0 11 0;
#X connect 2 0 3 0;
#X connect 3 0 11 0;
#X connect 4 0 5 0;
#X connect 5 0 6 0;
#X connect 7 0 11 0;
#X connect 8 0 7 0;
#X connect 9 0 11 0;
#X connect 10 0 9 0;
#X connect 11 0 25 0;
#X connect 12 0 13 0;
#X connect 13 0 0 0;
#X connect 13 1 14 0;
#X connect 14 0 24 0;
#X connect 15 0 16 0;
#X connect 16 0 2 0;
#X connect 16 1 8 0;
#X connect 17 0 31 0;
#X connect 18 0 2 0;
#X connect 19 0 27 0;
#X connect 20 0 19 0;
#X connect 21 0 18 0;
#X connect 22 0 12 0;
#X connect 23 0 17 0;
#X connect 24 0 29 0;
#X connect 25 0 38 0;
#X connect 26 0 19 0;
#X connect 27 0 10 0;
#X connect 28 0 11 0;
#X connect 29 0 15 0;
#X connect 29 1 26 0;
#X connect 29 2 21 0;
#X connect 29 3 36 0;
#X connect 30 0 34 0;
#X connect 31 0 18 0;
#X connect 31 1 20 0;
#X connect 31 2 32 0;
#X connect 32 0 30 0;
#X connect 33 0 35 0;
#X connect 34 0 28 0;
#X connect 35 0 11 0;
#X connect 36 0 30 0;
#X connect 37 0 4 0;
#X connect 37 0 11 1;
#X connect 39 0 11 0;
#X restore 548 258 pd RE-VERB;
#X obj 576 149 tgl 45 0 empty empty record 0 -7 0 10 -258113 -1 -1
0 1;
#X obj 605 217 bng 30 250 50 0 empty empty stop 0 -7 0 10 -191407 -1
-1;
#X obj 548 282 throw~ sum;
#N canvas 123 22 646 470 RE-VERB 0;
#X obj 81 239 tgl 15 0 empty empty empty 17 7 0 10 -262144 -1 -1 0
1;
#X msg 81 259 rec \$1;
#X obj 151 239 tgl 15 0 empty empty empty 17 7 0 10 -262144 -1 -1 0
1;
#X msg 151 259 play \$1;
#X obj -14 221 env~;
#X obj -14 243 - 100;
#X obj -13 267 vu 15 120 empty empty -1 -8 0 10 -66577 -1 1 0;
#X msg 234 258 norm \$1;
#X obj 234 238 tgl 15 0 empty empty empty 17 7 0 10 -262144 -1 -1 1
1;
#X msg 299 284 tempo \$1;
#X floatatom 299 257 5 0 0 0 - - -, f 5;
#X obj 34 327 loop;
#X obj 132 54 tgl 15 0 empty empty empty 17 7 0 10 -262144 -1 -1 0
1;
#X obj 132 74 t f f;
#X obj 159 103 sel 0;
#X msg 159 177 1;
#X obj 159 199 t f f;
#X obj 242 54 bng 15 250 50 0 empty empty empty 17 7 0 10 -262144 -1
-1;
#X msg 203 204 0;
#X obj 299 207 line;
#X msg 346 161 stop;
#X obj 203 174 del 180000;
#X obj 132 23 inlet;
#X obj 242 23 inlet;
#X obj 159 125 del 80;
#X obj 34 355 *~ 0.6;
#X msg 299 185 2 \, 0 180000;
#X obj 299 229 - 1;
#X msg 419 276 transp \$1;
#X obj 159 147 t b b b b;
#X obj 419 207 line;
#X obj 242 74 t b b b;
#X msg 436 161 stop;
#X obj 223 326 loadbang;
#X floatatom 419 246 5 0 0 0 - - -, f 5;
#X msg 223 346 winsize 120;
#X msg 419 185 0 \, 5 180000;
#X obj 55 192 inlet~;
#X obj 34 388 outlet~;
#X obj 173 384 r alle;
#X connect 0 0 1 0;
#X connect 1 0 11 0;
#X connect 2 0 3 0;
#X connect 3 0 11 0;
#X connect 4 0 5 0;
#X connect 5 0 6 0;
#X connect 7 0 11 0;
#X connect 8 0 7 0;
#X connect 9 0 11 0;
#X connect 10 0 9 0;
#X connect 11 0 25 0;
#X connect 12 0 13 0;
#X connect 13 0 0 0;
#X connect 13 1 14 0;
#X connect 14 0 24 0;
#X connect 15 0 16 0;
#X connect 16 0 2 0;
#X connect 16 1 8 0;
#X connect 17 0 31 0;
#X connect 18 0 2 0;
#X connect 19 0 27 0;
#X connect 20 0 19 0;
#X connect 21 0 18 0;
#X connect 22 0 12 0;
#X connect 23 0 17 0;
#X connect 24 0 29 0;
#X connect 25 0 38 0;
#X connect 26 0 19 0;
#X connect 27 0 10 0;
#X connect 28 0 11 0;
#X connect 29 0 15 0;
#X connect 29 1 26 0;
#X connect 29 2 21 0;
#X connect 29 3 36 0;
#X connect 30 0 34 0;
#X connect 31 0 18 0;
#X connect 31 1 20 0;
#X connect 31 2 32 0;
#X connect 32 0 30 0;
#X connect 33 0 35 0;
#X connect 34 0 28 0;
#X connect 35 0 11 0;
#X connect 36 0 30 0;
#X connect 37 0 4 0;
#X connect 37 0 11 1;
#X connect 39 0 11 0;
#X restore 628 258 pd RE-VERB;
#X obj 656 149 tgl 45 0 empty empty record 0 -7 0 10 -258113 -1 -1
0 1;
#X obj 685 217 bng 30 250 50 0 empty empty stop 0 -7 0 10 -191407 -1
-1;
#X obj 628 282 throw~ sum;
#X obj -36 241 adc~ 1 2 3 4 5 6 7 8;
#X obj 96 33 key;
#X floatatom 96 55 5 0 0 0 - - -, f 5;
#X obj 96 104 sel 49 50 51 52 53 54 55 56;
#X obj 731 150 bng 45 250 50 0 empty empty stop 0 -7 0 10 -191407 -1
-1;
#X obj 731 200 t b b b b b b b b;
#X msg 755 290 \; pd dsp 1;
#X obj 755 264 loadbang;
#X obj 70 358 *~;
#X msg 348 324 \$1 50;
#X obj 348 345 line~;
#X obj 397 324 hsl 128 15 0 127 0 0 empty empty empty -2 -8 0 10 -262144
-1 -1 0 1;
#X obj 394 344 / 265;
#X floatatom 395 365 5 0 0 0 - - -, f 5;
#X obj 96 74 spigot;
#X obj 139 54 tgl 15 0 empty empty empty 17 7 0 10 -262144 -1 -1 0
1;
#X obj 795 398 s alle;
#X msg 795 375 winsize 80;
#X connect 0 0 3 0;
#X connect 1 0 0 1;
#X connect 2 0 0 2;
#X connect 4 0 42 0;
#X connect 6 0 9 0;
#X connect 7 0 6 1;
#X connect 8 0 6 2;
#X connect 10 0 13 0;
#X connect 11 0 10 1;
#X connect 12 0 10 2;
#X connect 14 0 17 0;
#X connect 15 0 14 1;
#X connect 16 0 14 2;
#X connect 18 0 21 0;
#X connect 19 0 18 1;
#X connect 20 0 18 2;
#X connect 22 0 25 0;
#X connect 23 0 22 1;
#X connect 24 0 22 2;
#X connect 26 0 29 0;
#X connect 27 0 26 1;
#X connect 28 0 26 2;
#X connect 30 0 33 0;
#X connect 31 0 30 1;
#X connect 32 0 30 2;
#X connect 34 0 0 0;
#X connect 34 1 6 0;
#X connect 34 2 10 0;
#X connect 34 3 14 0;
#X connect 34 4 18 0;
#X connect 34 5 22 0;
#X connect 34 6 26 0;
#X connect 34 7 30 0;
#X connect 35 0 36 0;
#X connect 36 0 48 0;
#X connect 37 0 1 0;
#X connect 37 1 7 0;
#X connect 37 2 11 0;
#X connect 37 3 15 0;
#X connect 37 4 19 0;
#X connect 37 5 23 0;
#X connect 37 6 27 0;
#X connect 37 7 31 0;
#X connect 38 0 39 0;
#X connect 39 0 2 0;
#X connect 39 1 8 0;
#X connect 39 2 12 0;
#X connect 39 3 16 0;
#X connect 39 4 20 0;
#X connect 39 5 24 0;
#X connect 39 6 28 0;
#X connect 39 7 32 0;
#X connect 41 0 40 0;
#X connect 42 0 5 1;
#X connect 42 0 5 0;
#X connect 43 0 44 0;
#X connect 44 0 42 1;
#X connect 45 0 46 0;
#X connect 46 0 47 0;
#X connect 47 0 43 0;
#X connect 48 0 37 0;
#X connect 49 0 48 1;
#X connect 51 0 50 0;
