#N canvas 47 74 631 575 10;
#X obj 112 370 cos~;
#X obj 112 392 *~ -0.5;
#X obj 112 414 +~ 0.5;
#X obj 37 438 *~;
#X obj 252 370 cos~;
#X obj 252 392 *~ -0.5;
#X obj 252 414 +~ 0.5;
#X obj 177 438 *~;
#X obj 177 348 wrap~;
#X obj 37 468 +~;
#X obj 177 326 +~ 0.5;
#X obj 37 281 +~ 1;
#X obj 37 252 *~ -1;
#X obj 37 228 phasor~;
#X obj 37 498 outlet~;
#X obj 37 199 /~;
#X obj 37 93 expr~ pow (2 \, ($v1/12));
#X obj 37 138 -~ 1;
#X obj 37 53 inlet~;
#X obj 403 372 cos~;
#X obj 403 394 *~ -0.5;
#X obj 403 416 +~ 0.5;
#X obj 328 440 *~;
#X obj 543 372 cos~;
#X obj 543 394 *~ -0.5;
#X obj 543 416 +~ 0.5;
#X obj 468 440 *~;
#X obj 468 350 wrap~;
#X obj 328 470 +~;
#X obj 468 328 +~ 0.5;
#X obj 328 283 +~ 1;
#X obj 328 254 *~ -1;
#X obj 328 500 outlet~;
#X obj 468 380 *~ 40;
#X obj 328 380 *~ 40;
#X obj 177 380 *~ 40;
#X obj 37 378 *~ 40;
#X obj 79 169 /~ 1000;
#X obj 328 408 vd~ \$1_r;
#X obj 468 408 vd~ \$1_r;
#X obj 79 146 sig~ 40;
#X obj 266 140 r fensterbreite-\$1;
#X obj 266 192 t f f f f f;
#X floatatom 266 162 5 0 0 0 - - -, f 5;
#X obj 37 406 vd~ \$1;
#X obj 177 406 vd~ \$1;
#X connect 0 0 1 0;
#X connect 1 0 2 0;
#X connect 2 0 3 1;
#X connect 3 0 9 0;
#X connect 4 0 5 0;
#X connect 5 0 6 0;
#X connect 6 0 7 1;
#X connect 7 0 9 1;
#X connect 8 0 4 0;
#X connect 8 0 35 0;
#X connect 9 0 14 0;
#X connect 10 0 8 0;
#X connect 11 0 0 0;
#X connect 11 0 10 0;
#X connect 11 0 36 0;
#X connect 12 0 11 0;
#X connect 13 0 12 0;
#X connect 15 0 13 0;
#X connect 16 0 17 0;
#X connect 17 0 15 0;
#X connect 18 0 16 0;
#X connect 19 0 20 0;
#X connect 20 0 21 0;
#X connect 21 0 22 1;
#X connect 22 0 28 0;
#X connect 23 0 24 0;
#X connect 24 0 25 0;
#X connect 25 0 26 1;
#X connect 26 0 28 1;
#X connect 27 0 23 0;
#X connect 27 0 33 0;
#X connect 28 0 32 0;
#X connect 29 0 27 0;
#X connect 30 0 19 0;
#X connect 30 0 29 0;
#X connect 30 0 34 0;
#X connect 31 0 30 0;
#X connect 33 0 39 0;
#X connect 34 0 38 0;
#X connect 35 0 45 0;
#X connect 36 0 44 0;
#X connect 37 0 15 1;
#X connect 38 0 22 0;
#X connect 39 0 26 0;
#X connect 40 0 37 0;
#X connect 41 0 43 0;
#X connect 42 0 40 0;
#X connect 42 1 36 1;
#X connect 42 2 35 1;
#X connect 42 3 34 1;
#X connect 42 4 33 1;
#X connect 43 0 42 0;
#X connect 44 0 3 0;
#X connect 45 0 7 0;
