#N canvas 71 22 1210 579 10;
#X obj -6 18 cnv 15 140 340 empty empty empty 20 12 0 14 -4160 -66577
0;
#X obj 144 18 cnv 15 140 340 empty empty empty 20 12 0 14 -4160 -66577
0;
#X obj 294 18 cnv 15 140 340 empty empty empty 20 12 0 14 -4160 -66577
0;
#X obj 444 18 cnv 15 140 340 empty empty empty 20 12 0 14 -4160 -66577
0;
#X obj 594 18 cnv 15 140 340 empty empty empty 20 12 0 14 -4160 -66577
0;
#X obj 68 77 vsl 60 256 0 127 0 0 \$0-s1 \$0-s1 1 -60 120 0 50 -4032
-33289 -1 16665 1;
#X obj -2 32 hsl 128 30 0 127 0 0 \$0-k1 \$0-k1 empty -2 -8 0 10 -4032
-16662 -1 0 1;
#X obj -2 75 tgl 45 0 \$0-t1a \$0-t1a empty 17 7 0 10 -4032 -1 -1 0
1;
#X obj -2 295 tgl 45 0 \$0-t1b \$0-t1b empty 17 -140 0 20 -4032 -33289
-1 0 1;
#X obj 218 77 vsl 60 256 0 127 0 0 \$0-s2 \$0-s2 2 -60 120 0 50 -4032
-1 -1 14858 1;
#X obj 148 32 hsl 128 30 0 127 0 0 \$0-k2 \$0-k2 empty -2 -8 0 10 -4032
-1 -1 0 1;
#X obj 148 75 tgl 45 0 \$0-t2a \$0-t2a empty 17 7 0 10 -4032 -1 -1
0 1;
#X obj 148 295 tgl 45 0 \$0-t2b \$0-t2b empty 17 -140 0 20 -4032 -1
-1 0 1;
#X obj 368 77 vsl 60 256 0 127 0 0 \$0-s3 \$0-s3 3 -60 120 0 50 -4032
-1 -1 0 1;
#X obj 298 32 hsl 128 30 0 127 0 0 \$0-k3 \$0-k3 empty -2 -8 0 10 -4032
-1 -1 0 1;
#X obj 298 75 tgl 45 0 \$0-t3a \$0-t3a empty 17 7 0 10 -4032 -1 -1
0 1;
#X obj 298 295 tgl 45 0 \$0-t3b \$0-t3b empty 17 -140 0 20 -4032 -1
-1 0 1;
#X obj 518 77 vsl 60 256 0 127 0 0 \$0-s4 \$0-s4 4 -60 120 0 50 -4032
-1 -1 1606 1;
#X obj 448 32 hsl 128 30 0 127 0 0 \$0-k4 \$0-k4 empty -2 -8 0 10 -4032
-1 -1 0 1;
#X obj 448 75 tgl 45 0 \$0-t4a \$0-t4a empty 17 7 0 10 -4032 -1 -1
0 1;
#X obj 448 295 tgl 45 0 \$0-t4b \$0-t4b empty 17 -140 0 20 -4032 -1
-1 0 1;
#X obj 668 77 vsl 60 256 0 127 0 0 \$0-s5 \$0-s5 5 -60 120 0 50 -4032
-1 -1 25500 1;
#X obj 598 32 hsl 128 30 0 127 0 0 \$0-k5 \$0-k5 empty -2 -8 0 10 -4032
-1 -1 0 1;
#X obj 598 75 tgl 45 0 \$0-t5a \$0-t5a empty 17 7 0 10 -4032 -1 -1
0 1;
#X obj 598 295 tgl 45 0 \$0-t5b \$0-t5b empty 17 -140 0 20 -4032 -1
-1 0 1;
#X obj 744 18 cnv 15 140 340 empty empty empty 20 12 0 14 -4160 -66577
0;
#X obj 818 77 vsl 60 256 0 127 0 0 \$0-s6 \$0-s6 6 -60 120 0 50 -4032
-1 -1 0 1;
#X obj 748 32 hsl 128 30 0 127 0 0 \$0-k6 \$0-k6 empty -2 -8 0 10 -4032
-1 -1 0 1;
#X obj 748 75 tgl 45 0 \$0-t6a \$0-t6a empty 17 7 0 10 -4032 -1 -1
0 1;
#X obj 748 295 tgl 45 0 \$0-t6b \$0-t6b empty 17 -140 0 20 -4032 -1
-1 0 1;
#X obj 894 18 cnv 15 140 340 empty empty empty 20 12 0 14 -4160 -66577
0;
#X obj 968 77 vsl 60 256 0 127 0 0 \$0-s7 \$0-s7 7 -60 120 0 50 -4032
-1 -1 0 1;
#X obj 898 32 hsl 128 30 0 127 0 0 \$0-k7 \$0-k7 empty -2 -8 0 10 -4032
-1 -1 0 1;
#X obj 898 75 tgl 45 0 \$0-t7a \$0-t7a empty 17 7 0 10 -4032 -1 -1
0 1;
#X obj 898 295 tgl 45 0 \$0-t7b \$0-t7b empty 17 -140 0 20 -4032 -1
-1 0 1;
#X obj 1044 18 cnv 15 140 340 empty empty empty 20 12 0 14 -4160 -66577
0;
#X obj 1118 77 vsl 60 256 0 127 0 0 \$0-s8 \$0-s8 8 -60 120 0 50 -4032
-1 -1 0 1;
#X obj 1048 32 hsl 128 30 0 127 0 0 \$0-k8 \$0-k8 empty -2 -8 0 10
-4032 -1 -1 0 1;
#X obj 1048 75 tgl 45 0 \$0-t8a \$0-t8a empty 17 7 0 10 -4032 -1 -1
0 1;
#X obj 1048 295 tgl 45 0 \$0-t8b \$0-t8b empty 17 -140 0 20 -4032 -1
-1 0 1;
#X obj 54 471 tgl 45 0 \$0-stop \$0-stop Stop 0 -20 0 20 -191407 -33289
-1 0 1;
#X obj 114 471 tgl 45 0 \$0-record \$0-record Record 0 -20 0 20 -258113
-33289 -1 0 1;
#X obj -6 471 tgl 45 0 \$0-play \$0-play Play 0 -20 0 20 -191407 -33289
-1 0 1;
#N canvas 346 22 906 756 controller 0;
#X obj 90 107 spigot;
#X obj 123 82 tgl 15 0 empty empty empty 17 7 0 10 -262144 -1 -1 0
1;
#X obj 90 129 print;
#X obj 42 186 route 2 3 4 5 6 8 9 12 13;
#X msg 23 129 \$2 \$1;
#X obj 272 186 route 14 15 16 17 18 19 20 21 22;
#X obj 23 511 route 23 24 25 26 27 28 29 30 31;
#X obj 303 511 route 33 34 35 36 37 38 39 40 41;
#X obj 23 410 unpack f f;
#X obj 80 432 > 0;
#X obj 23 458 pack f f;
#X obj 23 154 t l l l;
#X obj 23 480 t l l l;
#X obj 666 503 route 44 46 45;
#X obj 172 216 s \$0-s9;
#X obj 156 236 s \$0-s8;
#X obj 140 256 s \$0-s7;
#X obj 123 276 s \$0-s6;
#X obj 107 296 s \$0-s5;
#X obj 91 316 s \$0-s4;
#X obj 74 336 s \$0-s3;
#X obj 58 356 s \$0-s2;
#X obj 42 376 s \$0-s1;
#X obj 440 216 s \$0-k9;
#X obj 419 236 s \$0-k8;
#X obj 398 256 s \$0-k7;
#X obj 377 276 s \$0-k6;
#X obj 356 296 s \$0-k5;
#X obj 335 316 s \$0-k4;
#X obj 314 336 s \$0-k3;
#X obj 293 356 s \$0-k2;
#X obj 272 376 s \$0-k1;
#X obj 191 541 s \$0-t9a;
#X obj 170 561 s \$0-t8a;
#X obj 149 581 s \$0-t7a;
#X obj 128 601 s \$0-t6a;
#X obj 107 621 s \$0-t5a;
#X obj 86 641 s \$0-t4a;
#X obj 65 661 s \$0-t3a;
#X obj 44 681 s \$0-t2a;
#X obj 23 701 s \$0-t1a;
#X obj 471 541 s \$0-t9b;
#X obj 450 561 s \$0-t8b;
#X obj 429 581 s \$0-t7b;
#X obj 408 601 s \$0-t6b;
#X obj 387 621 s \$0-t5b;
#X obj 366 641 s \$0-t4b;
#X obj 345 661 s \$0-t3b;
#X obj 324 681 s \$0-t2b;
#X obj 303 701 s \$0-t1b;
#X obj 720 528 s \$0-play;
#X obj 693 552 s \$0-stop;
#X obj 666 575 s \$0-record;
#X obj 23 12 ctlin;
#X obj 23 44 pack f f;
#X obj 23 70 t l l l;
#X obj 235 95 netsend;
#X msg 264 42 connect 192.168.1.149 3001;
#X msg 189 47 send \$1 \$2;
#X connect 0 0 2 0;
#X connect 1 0 0 1;
#X connect 3 0 22 0;
#X connect 3 1 21 0;
#X connect 3 2 20 0;
#X connect 3 3 19 0;
#X connect 3 4 18 0;
#X connect 3 5 17 0;
#X connect 3 6 16 0;
#X connect 3 7 15 0;
#X connect 3 8 14 0;
#X connect 4 0 11 0;
#X connect 5 0 31 0;
#X connect 5 1 30 0;
#X connect 5 2 29 0;
#X connect 5 3 28 0;
#X connect 5 4 27 0;
#X connect 5 5 26 0;
#X connect 5 6 25 0;
#X connect 5 7 24 0;
#X connect 5 8 23 0;
#X connect 6 0 40 0;
#X connect 6 1 39 0;
#X connect 6 2 38 0;
#X connect 6 3 37 0;
#X connect 6 4 36 0;
#X connect 6 5 35 0;
#X connect 6 6 34 0;
#X connect 6 7 33 0;
#X connect 6 8 32 0;
#X connect 7 0 49 0;
#X connect 7 1 48 0;
#X connect 7 2 47 0;
#X connect 7 3 46 0;
#X connect 7 4 45 0;
#X connect 7 5 44 0;
#X connect 7 6 43 0;
#X connect 7 7 42 0;
#X connect 7 8 41 0;
#X connect 8 0 10 0;
#X connect 8 1 9 0;
#X connect 9 0 10 1;
#X connect 10 0 12 0;
#X connect 11 0 8 0;
#X connect 11 1 3 0;
#X connect 11 2 5 0;
#X connect 12 0 6 0;
#X connect 12 1 7 0;
#X connect 12 2 13 0;
#X connect 13 0 52 0;
#X connect 13 1 51 0;
#X connect 13 2 50 0;
#X connect 53 0 54 0;
#X connect 53 1 54 1;
#X connect 54 0 55 0;
#X connect 55 0 4 0;
#X connect 55 1 0 0;
#X connect 55 2 58 0;
#X connect 57 0 56 0;
#X connect 58 0 56 0;
#X restore 1093 397 pd controller;
#N canvas 182 22 456 255 steuerung 0;
#N canvas 232 22 379 589 amplitude 0;
#X floatatom 46 43 5 0 0 0 - - -, f 5;
#X obj 46 88 * 5;
#X obj 46 66 / 127;
#X obj 46 146 unpack f f;
#X msg 46 119 \$1 1 \, \$1 2 \, \$1 3 \, \$1 4 \, \$1 5;
#X obj 46 259 clip 0 1;
#X obj 68 208 - 1;
#X obj 68 176 t f f f;
#X obj 46 285 - 0;
#X obj 68 230 t f f;
#X obj 46 357 pack f f;
#X msg 158 417 symbol amp;
#X obj 158 383 loadbang;
#X obj 46 482 outlet;
#X msg 46 379 \$2 \$1 200;
#X obj 46 401 unpack f f f;
#X obj 46 450 pack f s f f;
#X obj 116 259 r normalizefaktor;
#X floatatom 116 281 5 0 0 0 - - -, f 5;
#X obj 46 307 *;
#X obj 46 329 * 0.8;
#X obj 46 21 r \$0-k5;
#X connect 0 0 2 0;
#X connect 1 0 4 0;
#X connect 2 0 1 0;
#X connect 3 0 5 0;
#X connect 3 1 7 0;
#X connect 4 0 3 0;
#X connect 5 0 8 0;
#X connect 6 0 9 0;
#X connect 7 0 6 0;
#X connect 7 1 5 2;
#X connect 7 2 10 1;
#X connect 8 0 19 0;
#X connect 9 0 5 1;
#X connect 9 1 8 1;
#X connect 10 0 14 0;
#X connect 11 0 16 1;
#X connect 12 0 11 0;
#X connect 14 0 15 0;
#X connect 15 0 16 0;
#X connect 15 1 16 2;
#X connect 15 2 16 3;
#X connect 16 0 13 0;
#X connect 17 0 18 0;
#X connect 18 0 19 1;
#X connect 19 0 20 0;
#X connect 20 0 10 0;
#X connect 21 0 0 0;
#X restore 44 86 pd amplitude;
#X obj 44 189 outlet;
#N canvas 149 22 284 507 transpostition 0;
#X obj 56 167 * -1;
#X obj 96 167 * 1;
#X obj 136 167 * 4;
#X obj 176 167 * 6;
#X obj 16 167 * -5;
#X msg 16 189 1 \$1;
#X msg 56 189 2 \$1;
#X msg 96 189 3 \$1;
#X msg 136 189 4 \$1;
#X msg 176 189 5 \$1;
#X obj 16 142 t f f f f f;
#X obj 16 223 nop;
#X floatatom 16 86 5 0 0 0 - - -, f 5;
#X obj 16 109 / 127;
#X obj 128 272 loadbang;
#X obj 16 371 outlet;
#X obj 16 290 unpack f f f;
#X obj 16 339 pack f s f f;
#X msg 128 306 symbol transp;
#X msg 16 268 \$1 \$2 2000;
#X obj 16 64 r \$0-s5;
#X connect 0 0 6 0;
#X connect 1 0 7 0;
#X connect 2 0 8 0;
#X connect 3 0 9 0;
#X connect 4 0 5 0;
#X connect 5 0 11 0;
#X connect 6 0 11 0;
#X connect 7 0 11 0;
#X connect 8 0 11 0;
#X connect 9 0 11 0;
#X connect 10 0 4 0;
#X connect 10 1 0 0;
#X connect 10 2 1 0;
#X connect 10 3 2 0;
#X connect 10 4 3 0;
#X connect 11 0 19 0;
#X connect 12 0 13 0;
#X connect 13 0 10 0;
#X connect 14 0 18 0;
#X connect 16 0 17 0;
#X connect 16 1 17 2;
#X connect 16 2 17 3;
#X connect 17 0 15 0;
#X connect 18 0 17 1;
#X connect 19 0 16 0;
#X connect 20 0 12 0;
#X restore 129 86 pd transpostition;
#N canvas 72 22 718 644 strecke 0;
#X obj 167 507 loadbang;
#X obj 55 606 outlet;
#X msg 167 541 symbol strecke;
#X obj 136 32 r \$0-k7;
#X floatatom 136 54 5 0 0 0 - - -, f 5;
#X obj 95 359 *;
#X obj 55 381 +;
#X obj 55 330 expr 1-$f1;
#X obj 116 307 t b f;
#X obj 55 307 t f f;
#X floatatom 55 284 5 0 0 0 anteil - -, f 5;
#X obj 55 359 * 0.7;
#X floatatom 55 403 5 0 0 0 - - -, f 5;
#X floatatom 116 283 5 0 0 1 global_strecke - -, f 5;
#X obj 205 339 *;
#X obj 165 361 +;
#X obj 165 310 expr 1-$f1;
#X obj 226 287 t b f;
#X obj 165 287 t f f;
#X floatatom 165 264 5 0 0 0 anteil - -, f 5;
#X floatatom 165 383 5 0 0 0 - - -, f 5;
#X floatatom 226 263 5 0 0 1 global_strecke - -, f 5;
#X obj 136 174 t f f f f f;
#X obj 315 319 *;
#X obj 275 341 +;
#X obj 275 290 expr 1-$f1;
#X obj 336 267 t b f;
#X obj 275 267 t f f;
#X floatatom 275 244 5 0 0 0 anteil - -, f 5;
#X floatatom 275 363 5 0 0 0 - - -, f 5;
#X floatatom 336 243 5 0 0 1 global_strecke - -, f 5;
#X obj 425 299 *;
#X obj 385 321 +;
#X obj 385 270 expr 1-$f1;
#X obj 446 247 t b f;
#X obj 385 247 t f f;
#X floatatom 385 224 5 0 0 0 anteil - -, f 5;
#X floatatom 385 343 5 0 0 0 - - -, f 5;
#X floatatom 446 223 5 0 0 1 global_strecke - -, f 5;
#X obj 535 279 *;
#X obj 495 301 +;
#X obj 495 250 expr 1-$f1;
#X obj 556 227 t b f;
#X obj 495 227 t f f;
#X floatatom 495 204 5 0 0 0 anteil - -, f 5;
#X floatatom 495 323 5 0 0 0 - - -, f 5;
#X floatatom 556 203 5 0 0 1 global_strecke - -, f 5;
#X obj 495 279 * 0.2;
#X obj 165 339 * 0.5;
#X obj 385 299 * 0.3;
#X obj 275 319 * 0.6;
#X floatatom 55 59 5 0 0 0 - - -, f 5;
#X obj 55 37 r \$0-s7;
#X obj 55 174 t f f f f f;
#X msg 55 422 1 \$1;
#X msg 165 402 2 \$1;
#X msg 275 382 3 \$1;
#X msg 385 362 4 \$1;
#X msg 495 342 5 \$1;
#X obj 55 472 nop;
#X obj 55 140 expr 1 - $f1;
#X obj 55 525 unpack f f;
#X obj 55 574 pack f s f;
#X obj 136 134 f;
#X obj 55 104 t f b;
#X obj 55 82 / 120;
#X obj 136 76 + 1;
#X obj 136 103 / 128;
#X connect 0 0 2 0;
#X connect 2 0 62 1;
#X connect 3 0 4 0;
#X connect 4 0 66 0;
#X connect 5 0 6 1;
#X connect 6 0 12 0;
#X connect 7 0 11 0;
#X connect 8 0 11 0;
#X connect 8 1 5 0;
#X connect 9 0 7 0;
#X connect 9 1 5 1;
#X connect 10 0 9 0;
#X connect 11 0 6 0;
#X connect 12 0 54 0;
#X connect 13 0 8 0;
#X connect 14 0 15 1;
#X connect 15 0 20 0;
#X connect 16 0 48 0;
#X connect 17 0 48 0;
#X connect 17 1 14 0;
#X connect 18 0 16 0;
#X connect 18 1 14 1;
#X connect 19 0 18 0;
#X connect 20 0 55 0;
#X connect 21 0 17 0;
#X connect 22 0 13 0;
#X connect 22 1 21 0;
#X connect 22 2 30 0;
#X connect 22 3 38 0;
#X connect 22 4 46 0;
#X connect 23 0 24 1;
#X connect 24 0 29 0;
#X connect 25 0 50 0;
#X connect 26 0 50 0;
#X connect 26 1 23 0;
#X connect 27 0 25 0;
#X connect 27 1 23 1;
#X connect 28 0 27 0;
#X connect 29 0 56 0;
#X connect 30 0 26 0;
#X connect 31 0 32 1;
#X connect 32 0 37 0;
#X connect 33 0 49 0;
#X connect 34 0 49 0;
#X connect 34 1 31 0;
#X connect 35 0 33 0;
#X connect 35 1 31 1;
#X connect 36 0 35 0;
#X connect 37 0 57 0;
#X connect 38 0 34 0;
#X connect 39 0 40 1;
#X connect 40 0 45 0;
#X connect 41 0 47 0;
#X connect 42 0 47 0;
#X connect 42 1 39 0;
#X connect 43 0 41 0;
#X connect 43 1 39 1;
#X connect 44 0 43 0;
#X connect 45 0 58 0;
#X connect 46 0 42 0;
#X connect 47 0 40 0;
#X connect 48 0 15 0;
#X connect 49 0 32 0;
#X connect 50 0 24 0;
#X connect 51 0 65 0;
#X connect 52 0 51 0;
#X connect 53 0 10 0;
#X connect 53 1 19 0;
#X connect 53 2 28 0;
#X connect 53 3 36 0;
#X connect 53 4 44 0;
#X connect 54 0 59 0;
#X connect 55 0 59 0;
#X connect 56 0 59 0;
#X connect 57 0 59 0;
#X connect 58 0 59 0;
#X connect 59 0 61 0;
#X connect 60 0 53 0;
#X connect 61 0 62 0;
#X connect 61 1 62 2;
#X connect 62 0 1 0;
#X connect 63 0 22 0;
#X connect 64 0 60 0;
#X connect 64 1 63 0;
#X connect 65 0 64 0;
#X connect 66 0 67 0;
#X connect 67 0 63 0;
#X restore 319 86 pd strecke;
#N canvas 352 22 413 489 pos 0;
#X obj 132 79 r \$0-k8;
#X floatatom 132 101 5 0 0 0 - - -, f 5;
#X obj 132 120 / 127;
#X msg 132 158 1 \$1 \, 2 \$1 \, 3 \$1 \, 4 \$1 \, 5 \$1;
#X obj 281 311 loadbang;
#X msg 281 333 symbol pos;
#X obj 132 410 outlet;
#X msg 145 251 \$1 \$2 2000;
#X obj 132 294 unpack f f f;
#X obj 132 358 pack f s f f;
#X connect 0 0 1 0;
#X connect 1 0 2 0;
#X connect 2 0 3 0;
#X connect 3 0 7 0;
#X connect 4 0 5 0;
#X connect 5 0 9 1;
#X connect 7 0 8 0;
#X connect 8 0 9 0;
#X connect 8 1 9 2;
#X connect 8 2 9 3;
#X connect 9 0 6 0;
#X restore 399 86 pd pos;
#N canvas 222 22 688 726 tempo 0;
#X obj 167 597 loadbang;
#X obj 55 696 outlet;
#X floatatom 136 94 5 0 0 0 - - -, f 5;
#X obj 95 449 *;
#X obj 55 471 +;
#X obj 55 420 expr 1-$f1;
#X obj 116 397 t b f;
#X obj 55 397 t f f;
#X floatatom 55 374 5 0 0 0 anteil - -, f 5;
#X floatatom 55 493 5 0 0 0 - - -, f 5;
#X floatatom 116 373 5 0 0 1 global_strecke - -, f 5;
#X obj 205 429 *;
#X obj 165 451 +;
#X obj 165 400 expr 1-$f1;
#X obj 226 377 t b f;
#X obj 165 377 t f f;
#X floatatom 165 354 5 0 0 0 anteil - -, f 5;
#X floatatom 165 473 5 0 0 0 - - -, f 5;
#X floatatom 226 353 5 0 0 1 global_strecke - -, f 5;
#X obj 136 264 t f f f f f;
#X obj 315 409 *;
#X obj 275 431 +;
#X obj 275 380 expr 1-$f1;
#X obj 336 357 t b f;
#X obj 275 357 t f f;
#X floatatom 275 334 5 0 0 0 anteil - -, f 5;
#X floatatom 275 453 5 0 0 0 - - -, f 5;
#X floatatom 336 333 5 0 0 1 global_strecke - -, f 5;
#X obj 425 389 *;
#X obj 385 411 +;
#X obj 385 360 expr 1-$f1;
#X obj 446 337 t b f;
#X obj 385 337 t f f;
#X floatatom 385 314 5 0 0 0 anteil - -, f 5;
#X floatatom 385 433 5 0 0 0 - - -, f 5;
#X floatatom 446 313 5 0 0 1 global_strecke - -, f 5;
#X obj 535 369 *;
#X obj 495 391 +;
#X obj 495 340 expr 1-$f1;
#X obj 556 317 t b f;
#X obj 495 317 t f f;
#X floatatom 495 294 5 0 0 0 anteil - -, f 5;
#X floatatom 495 413 5 0 0 0 - - -, f 5;
#X floatatom 556 293 5 0 0 1 global_strecke - -, f 5;
#X floatatom 55 59 5 0 0 0 - - -, f 5;
#X obj 55 264 t f f f f f;
#X msg 55 512 1 \$1;
#X msg 165 492 2 \$1;
#X msg 275 472 3 \$1;
#X msg 385 452 4 \$1;
#X msg 495 432 5 \$1;
#X obj 55 562 nop;
#X obj 55 230 expr 1 - $f1;
#X obj 55 615 unpack f f;
#X obj 55 664 pack f s f;
#X obj 136 224 f;
#X obj 55 104 t f b;
#X obj 136 123 / 127;
#X obj 136 145 * 2;
#X obj 136 167 - 1;
#X obj 136 191 expr pow (4 \, $f1);
#X obj 55 82 / 127;
#X obj 343 173 route 1 2 3 4 5;
#X obj 495 369 * 1;
#X obj 385 389 * 1;
#X obj 275 409 * 1;
#X obj 165 429 * 1;
#X obj 55 449 * 1;
#N canvas 440 22 707 447 random 0;
#X obj 89 384 outlet;
#X obj 89 74 metro 5000;
#X obj 89 96 t b b b b b;
#X obj 89 150 random 128;
#X obj 89 174 / 127;
#X obj 89 196 * 2;
#X obj 89 218 - 1;
#X obj 89 242 expr pow (4 \, $f1);
#X msg 89 324 1 \$1;
#X msg 89 276 \$1 5000;
#X obj 89 298 line;
#X obj 199 150 random 128;
#X obj 199 174 / 127;
#X obj 199 196 * 2;
#X obj 199 218 - 1;
#X obj 199 242 expr pow (4 \, $f1);
#X msg 199 276 \$1 5000;
#X obj 199 298 line;
#X obj 309 150 random 128;
#X obj 309 174 / 127;
#X obj 309 196 * 2;
#X obj 309 218 - 1;
#X obj 309 242 expr pow (4 \, $f1);
#X msg 309 276 \$1 5000;
#X obj 309 298 line;
#X obj 419 150 random 128;
#X obj 419 174 / 127;
#X obj 419 196 * 2;
#X obj 419 218 - 1;
#X obj 419 242 expr pow (4 \, $f1);
#X msg 419 276 \$1 5000;
#X obj 419 298 line;
#X obj 529 150 random 128;
#X obj 529 174 / 127;
#X obj 529 196 * 2;
#X obj 529 218 - 1;
#X obj 529 242 expr pow (4 \, $f1);
#X msg 529 276 \$1 5000;
#X obj 529 298 line;
#X msg 199 324 2 \$1;
#X msg 309 324 3 \$1;
#X msg 419 324 4 \$1;
#X msg 529 324 5 \$1;
#X obj 89 44 tgl 15 0 empty empty empty 17 7 0 10 -262144 -1 -1 1 1
;
#X obj 89 19 loadbang;
#X connect 1 0 2 0;
#X connect 2 0 3 0;
#X connect 2 1 11 0;
#X connect 2 2 18 0;
#X connect 2 3 25 0;
#X connect 2 4 32 0;
#X connect 3 0 4 0;
#X connect 4 0 5 0;
#X connect 5 0 6 0;
#X connect 6 0 7 0;
#X connect 7 0 9 0;
#X connect 8 0 0 0;
#X connect 9 0 10 0;
#X connect 10 0 8 0;
#X connect 11 0 12 0;
#X connect 12 0 13 0;
#X connect 13 0 14 0;
#X connect 14 0 15 0;
#X connect 15 0 16 0;
#X connect 16 0 17 0;
#X connect 17 0 39 0;
#X connect 18 0 19 0;
#X connect 19 0 20 0;
#X connect 20 0 21 0;
#X connect 21 0 22 0;
#X connect 22 0 23 0;
#X connect 23 0 24 0;
#X connect 24 0 40 0;
#X connect 25 0 26 0;
#X connect 26 0 27 0;
#X connect 27 0 28 0;
#X connect 28 0 29 0;
#X connect 29 0 30 0;
#X connect 30 0 31 0;
#X connect 31 0 41 0;
#X connect 32 0 33 0;
#X connect 33 0 34 0;
#X connect 34 0 35 0;
#X connect 35 0 36 0;
#X connect 36 0 37 0;
#X connect 37 0 38 0;
#X connect 38 0 42 0;
#X connect 39 0 0 0;
#X connect 40 0 0 0;
#X connect 41 0 0 0;
#X connect 42 0 0 0;
#X connect 43 0 1 0;
#X connect 44 0 43 0;
#X restore 343 148 pd random;
#X obj 55 37 r \$0-s6;
#X obj 136 73 r \$0-k6;
#X msg 167 631 symbol tempo;
#X connect 0 0 71 0;
#X connect 2 0 57 0;
#X connect 3 0 4 1;
#X connect 4 0 9 0;
#X connect 5 0 67 0;
#X connect 6 0 67 0;
#X connect 6 1 3 0;
#X connect 7 0 5 0;
#X connect 7 1 3 1;
#X connect 8 0 7 0;
#X connect 9 0 46 0;
#X connect 10 0 6 0;
#X connect 11 0 12 1;
#X connect 12 0 17 0;
#X connect 13 0 66 0;
#X connect 14 0 66 0;
#X connect 14 1 11 0;
#X connect 15 0 13 0;
#X connect 15 1 11 1;
#X connect 16 0 15 0;
#X connect 17 0 47 0;
#X connect 18 0 14 0;
#X connect 19 0 10 0;
#X connect 19 1 18 0;
#X connect 19 2 27 0;
#X connect 19 3 35 0;
#X connect 19 4 43 0;
#X connect 20 0 21 1;
#X connect 21 0 26 0;
#X connect 22 0 65 0;
#X connect 23 0 65 0;
#X connect 23 1 20 0;
#X connect 24 0 22 0;
#X connect 24 1 20 1;
#X connect 25 0 24 0;
#X connect 26 0 48 0;
#X connect 27 0 23 0;
#X connect 28 0 29 1;
#X connect 29 0 34 0;
#X connect 30 0 64 0;
#X connect 31 0 64 0;
#X connect 31 1 28 0;
#X connect 32 0 30 0;
#X connect 32 1 28 1;
#X connect 33 0 32 0;
#X connect 34 0 49 0;
#X connect 35 0 31 0;
#X connect 36 0 37 1;
#X connect 37 0 42 0;
#X connect 38 0 63 0;
#X connect 39 0 63 0;
#X connect 39 1 36 0;
#X connect 40 0 38 0;
#X connect 40 1 36 1;
#X connect 41 0 40 0;
#X connect 42 0 50 0;
#X connect 43 0 39 0;
#X connect 44 0 61 0;
#X connect 45 0 8 0;
#X connect 45 1 16 0;
#X connect 45 2 25 0;
#X connect 45 3 33 0;
#X connect 45 4 41 0;
#X connect 46 0 51 0;
#X connect 47 0 51 0;
#X connect 48 0 51 0;
#X connect 49 0 51 0;
#X connect 50 0 51 0;
#X connect 51 0 53 0;
#X connect 52 0 45 0;
#X connect 53 0 54 0;
#X connect 53 1 54 2;
#X connect 54 0 1 0;
#X connect 55 0 19 0;
#X connect 56 0 52 0;
#X connect 56 1 55 0;
#X connect 57 0 58 0;
#X connect 58 0 59 0;
#X connect 59 0 60 0;
#X connect 60 0 55 0;
#X connect 61 0 56 0;
#X connect 62 0 67 1;
#X connect 62 1 66 1;
#X connect 62 2 65 1;
#X connect 62 3 64 1;
#X connect 62 4 63 1;
#X connect 63 0 37 0;
#X connect 64 0 29 0;
#X connect 65 0 21 0;
#X connect 66 0 12 0;
#X connect 67 0 4 0;
#X connect 68 0 62 0;
#X connect 69 0 44 0;
#X connect 70 0 2 0;
#X connect 71 0 54 1;
#X restore 250 86 pd tempo;
#X connect 0 0 1 0;
#X connect 2 0 1 0;
#X connect 3 0 1 0;
#X connect 4 0 1 0;
#X connect 5 0 1 0;
#X restore 1092 425 pd steuerung;
#X obj 1092 457 print;
#X connect 44 0 45 0;
