#N canvas -8 -8 1366 686 10;
#X obj 17 14 delay01 1;
#X obj 326 12 delay01 2;
#X obj 636 13 delay01 3;
#X obj 946 13 delay01 4;
#X obj 14 323 delay01 5;
#X obj 326 323 delay01 6;
#X obj 637 323 delay01 7;
#X obj 947 323 delay01 8;
#N canvas 57 82 450 300 works 0;
#X obj 28 36 catch~ out01;
#X obj 30 200 dac~ 1 2 3 4 5 6 7 8;
#X obj 233 115 env~ 8192;
#X obj 233 137 - 100;
#X obj 28 58 *~ 0;
#X obj 136 32 r \$0-main-volume;
#X obj 233 159 s \$0-vu-main;
#X floatatom 136 54 5 0 0 0 - - -, f 5;
#X connect 0 0 4 0;
#X connect 2 0 3 0;
#X connect 3 0 6 0;
#X connect 4 0 2 0;
#X connect 4 0 1 0;
#X connect 4 0 1 1;
#X connect 5 0 7 0;
#X connect 5 0 4 1;
#X restore 43 704 pd works;
#X obj 348 647 hsl 600 30 0 1 0 0 \$0-main-volume empty main-volume
-2 -8 0 12 -258113 -1 -1 59900 1;
#X obj 1263 29 vu 30 600 \$0-vu-main main-volume -1 -8 0 12 -66577
-1 1 0;
