#N canvas 55 22 1218 551 10;
#X obj -6 18 cnv 15 140 340 empty empty empty 20 12 0 14 -4160 -66577
0;
#X obj 144 18 cnv 15 140 340 empty empty empty 20 12 0 14 -4160 -66577
0;
#X obj 294 18 cnv 15 140 340 empty empty empty 20 12 0 14 -4160 -66577
0;
#X obj 444 18 cnv 15 140 340 empty empty empty 20 12 0 14 -4160 -66577
0;
#X obj 594 18 cnv 15 140 340 empty empty empty 20 12 0 14 -4160 -66577
0;
#X obj 68 77 vsl 60 256 0 127 0 0 \$0send-s1 \$0recieve-s1 1 -60 120
0 50 -4032 -33289 -1 0 1;
#X obj -2 32 hsl 128 30 0 127 0 0 \$0send-k1 \$0recieve-k1 empty -2
-8 0 10 -4032 -16662 -1 5600 1;
#X obj -2 75 tgl 45 0 \$0send-t1a \$0recieve-t1a empty 17 7 0 10 -4032
-1 -1 0 1;
#X obj -2 295 tgl 45 0 \$0send-t1b \$0recieve-t1b empty 17 -140 0 20
-4032 -33289 -1 0 1;
#X obj 218 77 vsl 60 256 0 127 0 0 \$0send-s2 \$0recieve-s2 2 -60 120
0 50 -4032 -1 -1 9638 1;
#X obj 148 32 hsl 128 30 0 127 0 0 \$0send-k2 \$0recieve-k2 empty -2
-8 0 10 -4032 -1 -1 1300 1;
#X obj 148 75 tgl 45 0 \$0send-t2a \$0recieve-t2a empty 17 7 0 10 -4032
-1 -1 0 1;
#X obj 148 295 tgl 45 0 \$0send-t2b \$0recieve-t2b empty 17 -140 0
20 -4032 -1 -1 0 1;
#X obj 368 77 vsl 60 256 0 127 0 0 \$0send-s3 \$0recieve-s3 3 -60 120
0 50 -4032 -1 -1 19276 1;
#X obj 298 32 hsl 128 30 0 127 0 0 \$0send-k3 \$0recieve-k3 empty -2
-8 0 10 -4032 -1 -1 6700 1;
#X obj 298 75 tgl 45 0 \$0send-t3a \$0recieve-t3a empty 17 7 0 10 -4032
-1 -1 0 1;
#X obj 298 295 tgl 45 0 \$0send-t3b \$0recieve-t3b empty 17 -140 0
20 -4032 -1 -1 0 1;
#X obj 518 77 vsl 60 256 0 127 0 0 \$0send-s4 \$0recieve-s4 4 -60 120
0 50 -4032 -1 -1 15862 1;
#X obj 448 32 hsl 128 30 0 127 0 0 \$0send-k4 \$0recieve-k4 empty -2
-8 0 10 -4032 -1 -1 3700 1;
#X obj 448 75 tgl 45 0 \$0send-t4a \$0recieve-t4a empty 17 7 0 10 -4032
-1 -1 0 1;
#X obj 448 295 tgl 45 0 \$0send-t4b \$0recieve-t4b empty 17 -140 0
20 -4032 -1 -1 0 1;
#X obj 668 77 vsl 60 256 0 127 0 0 \$0send-s5 \$0recieve-s5 5 -60 120
0 50 -4032 -1 -1 17268 1;
#X obj 598 32 hsl 128 30 0 127 0 0 \$0send-k5 \$0recieve-k5 empty -2
-8 0 10 -4032 -1 -1 8200 1;
#X obj 598 75 tgl 45 0 \$0send-t5a \$0recieve-t5a empty 17 7 0 10 -4032
-1 -1 0 1;
#X obj 598 295 tgl 45 0 \$0send-t5b \$0recieve-t5b empty 17 -140 0
20 -4032 -1 -1 0 1;
#X obj 744 18 cnv 15 140 340 empty empty empty 20 12 0 14 -4160 -66577
0;
#X obj 818 77 vsl 60 256 0 127 0 0 \$0send-s6 \$0recieve-s6 6 -60 120
0 50 -4032 -1 -1 9035 1;
#X obj 748 32 hsl 128 30 0 127 0 0 \$0send-k6 \$0recieve-k6 empty -2
-8 0 10 -4032 -1 -1 2800 1;
#X obj 748 75 tgl 45 0 \$0send-t6a \$0recieve-t6a empty 17 7 0 10 -4032
-1 -1 0 1;
#X obj 748 295 tgl 45 0 \$0send-t6b \$0recieve-t6b empty 17 -140 0
20 -4032 -1 -1 0 1;
#X obj 894 18 cnv 15 140 340 empty empty empty 20 12 0 14 -4160 -66577
0;
#X obj 968 77 vsl 60 256 0 127 0 0 \$0send-s7 \$0recieve-s7 7 -60 120
0 50 -4032 -1 -1 8835 1;
#X obj 898 32 hsl 128 30 0 127 0 0 \$0send-k7 \$0recieve-k7 empty -2
-8 0 10 -4032 -1 -1 3700 1;
#X obj 898 75 tgl 45 0 \$0send-t7a \$0recieve-t7a empty 17 7 0 10 -4032
-1 -1 0 1;
#X obj 898 295 tgl 45 0 \$0send-t7b \$0recieve-t7b empty 17 -140 0
20 -4032 -1 -1 0 1;
#X obj 1044 18 cnv 15 140 340 empty empty empty 20 12 0 14 -4160 -66577
0;
#X obj 1118 77 vsl 60 256 0 127 0 0 \$0send-s8 \$0recieve-s8 8 -60
120 0 50 -4032 -1 -1 4417 1;
#X obj 1048 32 hsl 128 30 0 127 0 0 \$0send-k8 \$0recieve-k8 empty
-2 -8 0 10 -4032 -1 -1 4600 1;
#X obj 1048 75 tgl 45 0 \$0send-t8a \$0recieve-t8a empty 17 7 0 10
-4032 -1 -1 0 1;
#X obj 1048 295 tgl 45 0 \$0send-t8b \$0recieve-t8b empty 17 -140 0
20 -4032 -1 -1 0 1;
#X obj 54 471 tgl 45 0 \$0send-stop \$0recieve-stop Stop 0 -20 0 20
-191407 -33289 -1 0 1;
#X obj 114 471 tgl 45 0 \$0send-record \$0recieve-record Record 0 -20
0 20 -258113 -33289 -1 0 1;
#X obj -6 471 tgl 45 0 \$0send-play \$0recieve-play Play 0 -20 0 20
-191407 -33289 -1 0 1;
#N canvas 346 22 906 756 controller 0;
#X obj 23 15 ctlin;
#X obj 23 48 pack f f;
#X obj 90 87 spigot;
#X obj 123 62 tgl 15 0 empty empty empty 17 7 0 10 -262144 -1 -1 0
1;
#X obj 90 109 print;
#X obj 23 70 t l l;
#X obj 42 186 route 2 3 4 5 6 8 9 12 13;
#X obj 172 216 s \$0recieve-s9;
#X obj 156 236 s \$0recieve-s8;
#X obj 140 256 s \$0recieve-s7;
#X obj 123 276 s \$0recieve-s6;
#X obj 107 296 s \$0recieve-s5;
#X obj 91 316 s \$0recieve-s4;
#X obj 74 336 s \$0recieve-s3;
#X obj 58 356 s \$0recieve-s2;
#X obj 42 376 s \$0recieve-s1;
#X msg 23 129 \$2 \$1;
#X obj 440 216 s \$0recieve-k9;
#X obj 419 236 s \$0recieve-k8;
#X obj 398 256 s \$0recieve-k7;
#X obj 377 276 s \$0recieve-k6;
#X obj 356 296 s \$0recieve-k5;
#X obj 335 316 s \$0recieve-k4;
#X obj 314 336 s \$0recieve-k3;
#X obj 293 356 s \$0recieve-k2;
#X obj 272 376 s \$0recieve-k1;
#X obj 272 186 route 14 15 16 17 18 19 20 21 22;
#X obj 191 541 s \$0recieve-t9a;
#X obj 170 561 s \$0recieve-t8a;
#X obj 149 581 s \$0recieve-t7a;
#X obj 128 601 s \$0recieve-t6a;
#X obj 107 621 s \$0recieve-t5a;
#X obj 86 641 s \$0recieve-t4a;
#X obj 65 661 s \$0recieve-t3a;
#X obj 44 681 s \$0recieve-t2a;
#X obj 23 701 s \$0recieve-t1a;
#X obj 23 511 route 23 24 25 26 27 28 29 30 31;
#X obj 303 511 route 33 34 35 36 37 38 39 40 41;
#X obj 471 541 s \$0recieve-t9b;
#X obj 450 561 s \$0recieve-t8b;
#X obj 429 581 s \$0recieve-t7b;
#X obj 408 601 s \$0recieve-t6b;
#X obj 387 621 s \$0recieve-t5b;
#X obj 366 641 s \$0recieve-t4b;
#X obj 345 661 s \$0recieve-t3b;
#X obj 324 681 s \$0recieve-t2b;
#X obj 303 701 s \$0recieve-t1b;
#X obj 23 410 unpack f f;
#X obj 80 432 > 0;
#X obj 23 458 pack f f;
#X obj 23 154 t l l l;
#X obj 23 480 t l l l;
#X obj 666 575 s \$0recieve-record;
#X obj 693 552 s \$0recieve-stop;
#X obj 720 528 s \$0recieve-play;
#X obj 666 503 route 44 46 45;
#X connect 0 0 1 0;
#X connect 0 1 1 1;
#X connect 1 0 5 0;
#X connect 2 0 4 0;
#X connect 3 0 2 1;
#X connect 5 0 16 0;
#X connect 5 1 2 0;
#X connect 6 0 15 0;
#X connect 6 1 14 0;
#X connect 6 2 13 0;
#X connect 6 3 12 0;
#X connect 6 4 11 0;
#X connect 6 5 10 0;
#X connect 6 6 9 0;
#X connect 6 7 8 0;
#X connect 6 8 7 0;
#X connect 16 0 50 0;
#X connect 26 0 25 0;
#X connect 26 1 24 0;
#X connect 26 2 23 0;
#X connect 26 3 22 0;
#X connect 26 4 21 0;
#X connect 26 5 20 0;
#X connect 26 6 19 0;
#X connect 26 7 18 0;
#X connect 26 8 17 0;
#X connect 36 0 35 0;
#X connect 36 1 34 0;
#X connect 36 2 33 0;
#X connect 36 3 32 0;
#X connect 36 4 31 0;
#X connect 36 5 30 0;
#X connect 36 6 29 0;
#X connect 36 7 28 0;
#X connect 36 8 27 0;
#X connect 37 0 46 0;
#X connect 37 1 45 0;
#X connect 37 2 44 0;
#X connect 37 3 43 0;
#X connect 37 4 42 0;
#X connect 37 5 41 0;
#X connect 37 6 40 0;
#X connect 37 7 39 0;
#X connect 37 8 38 0;
#X connect 47 0 49 0;
#X connect 47 1 48 0;
#X connect 48 0 49 1;
#X connect 49 0 51 0;
#X connect 50 0 47 0;
#X connect 50 1 6 0;
#X connect 50 2 26 0;
#X connect 51 0 36 0;
#X connect 51 1 37 0;
#X connect 51 2 55 0;
#X connect 55 0 52 0;
#X connect 55 1 53 0;
#X connect 55 2 54 0;
#X restore 1103 388 pd controller;
#N canvas 279 28 723 308 audio 1;
#N canvas 297 22 943 524 record/play 1;
#X obj 71 72 r \$0send-record;
#X obj 71 97 tgl 15 0 empty empty empty 17 7 0 10 -262144 -1 -1 0 1
;
#X msg 180 180 open loop1.wav;
#X obj 71 118 sel 0 1;
#X obj 136 159 t b b;
#X obj 136 228 writesf~ 1;
#X msg 136 180 start;
#X msg 98 182 stop;
#X obj 71 154 t b b;
#X obj 71 398 soundfiler;
#N canvas 0 22 450 278 (subpatch) 0;
#X array \$0-loop 80448 float 2;
#X coords 0 1 80448 -1 200 140 1 0 0;
#X restore 274 27 graph;
#X floatatom 71 429 5 0 0 0 - - -, f 5;
#X obj 86 300 \$0;
#X floatatom 86 322 5 0 0 0 - - -, f 5;
#X obj 86 280 bng 15 250 50 0 empty empty empty 17 7 0 10 -262144 -1
-1;
#X msg 71 369 read -resize loop1.wav \$1-loop;
#X obj 71 344 f;
#X obj 86 254 loadbang;
#N canvas 628 39 265 562 normelizefaktor 0;
#X obj 53 36 inlet;
#X obj 53 106 until;
#X obj 53 193 t f f;
#X msg 53 144 1;
#X obj 53 166 +;
#X msg 102 147 0;
#X floatatom 53 220 5 0 0 0 - - -, f 5;
#X obj 53 246 tabread \$0-loop;
#X obj 53 273 abs;
#X obj 53 407 t f f;
#X obj 53 356 sel 1;
#X obj 53 383 f;
#X obj 53 334 > 0;
#X obj 53 303 t f f;
#X floatatom 53 434 5 0 0 0 - - -, f 5;
#X obj 53 483 outlet;
#X obj 53 72 t f b b;
#X msg 145 315 0;
#X obj 53 459 expr 1/$f1;
#X connect 0 0 16 0;
#X connect 1 0 3 0;
#X connect 2 0 6 0;
#X connect 2 1 4 1;
#X connect 3 0 4 0;
#X connect 4 0 2 0;
#X connect 5 0 4 1;
#X connect 6 0 7 0;
#X connect 7 0 8 0;
#X connect 8 0 13 0;
#X connect 9 0 14 0;
#X connect 9 1 12 1;
#X connect 10 0 11 0;
#X connect 11 0 9 0;
#X connect 12 0 10 0;
#X connect 13 0 12 0;
#X connect 13 1 11 1;
#X connect 14 0 18 0;
#X connect 16 0 1 0;
#X connect 16 1 5 0;
#X connect 16 2 17 0;
#X connect 17 0 12 1;
#X connect 18 0 15 0;
#X restore 71 451 pd normelizefaktor;
#X floatatom 71 473 5 0 0 0 - - -, f 5;
#X obj 194 201 adc~ 1;
#X obj 243 244 env~;
#X obj 243 288 s vu;
#X obj 243 266 - 100;
#N canvas 0 22 838 720 synth 1;
#X obj 206 231 phasor~;
#X obj 206 117 expr~ pow(2 \, ($v1/12));
#X obj 206 190 /~;
#X obj 221 169 /~ 1000;
#X obj 206 317 *~;
#X obj 221 295 *~ 44.1;
#X obj 206 406 +~;
#X obj 221 380 *~ 44.1;
#X floatatom 545 278 5 0 0 0 - - -, f 5;
#X obj 545 297 sig~;
#X obj 221 358 samphold~;
#X obj 221 476 cos~;
#X obj 221 498 *~ -0.5;
#X obj 221 520 +~ 0.5;
#X obj 206 546 *~;
#X obj 346 317 *~;
#X obj 361 295 *~ 44.1;
#X obj 346 406 +~;
#X obj 361 380 *~ 44.1;
#X obj 361 358 samphold~;
#X obj 361 476 cos~;
#X obj 361 498 *~ -0.5;
#X obj 361 520 +~ 0.5;
#X obj 346 546 *~;
#X obj 346 235 +~ 0.5;
#X obj 346 257 wrap~;
#X obj 206 568 +~;
#X obj 276 147 sig~ 40;
#X obj 206 76 sig~ 0;
#X obj 117 660 outlet~;
#X obj 206 13 inlet;
#X obj 206 42 unpack f f;
#X obj 206 603 *~;
#X obj 514 567 line~;
#X obj 545 248 r index;
#X obj 49 40 inlet~;
#X obj 117 626 +~;
#X obj 404 72 r winsize;
#X obj 524 435 sel 0 1;
#X msg 524 481 0;
#X obj 524 514 pack f 100;
#X obj 604 514 pack f 100;
#X msg 604 481 1;
#X obj 564 479 r rel;
#X obj 663 479 r at;
#X obj 206 438 tabread4~ \$0-loop;
#X obj 346 438 tabread4~ \$0-loop;
#X connect 0 0 4 0;
#X connect 0 0 10 1;
#X connect 0 0 11 0;
#X connect 0 0 24 0;
#X connect 1 0 2 0;
#X connect 2 0 0 0;
#X connect 3 0 2 1;
#X connect 4 0 6 0;
#X connect 5 0 4 1;
#X connect 6 0 45 0;
#X connect 7 0 6 1;
#X connect 8 0 9 0;
#X connect 9 0 10 0;
#X connect 9 0 19 0;
#X connect 10 0 7 0;
#X connect 11 0 12 0;
#X connect 12 0 13 0;
#X connect 13 0 14 1;
#X connect 14 0 26 0;
#X connect 15 0 17 0;
#X connect 16 0 15 1;
#X connect 17 0 46 0;
#X connect 18 0 17 1;
#X connect 19 0 18 0;
#X connect 20 0 21 0;
#X connect 21 0 22 0;
#X connect 22 0 23 1;
#X connect 23 0 26 1;
#X connect 24 0 25 0;
#X connect 25 0 15 0;
#X connect 25 0 19 1;
#X connect 25 0 20 0;
#X connect 26 0 32 0;
#X connect 27 0 3 0;
#X connect 27 0 5 0;
#X connect 27 0 16 0;
#X connect 28 0 1 0;
#X connect 30 0 31 0;
#X connect 31 0 28 0;
#X connect 31 1 38 0;
#X connect 32 0 36 1;
#X connect 33 0 32 1;
#X connect 34 0 8 0;
#X connect 35 0 36 0;
#X connect 36 0 29 0;
#X connect 37 0 27 0;
#X connect 38 0 39 0;
#X connect 38 1 42 0;
#X connect 39 0 40 0;
#X connect 40 0 33 0;
#X connect 41 0 33 0;
#X connect 42 0 41 0;
#X connect 43 0 40 1;
#X connect 44 0 41 1;
#X connect 45 0 14 0;
#X connect 46 0 23 0;
#X restore 463 369 pd synth;
#X connect 0 0 1 0;
#X connect 1 0 3 0;
#X connect 2 0 5 0;
#X connect 3 0 8 0;
#X connect 3 1 4 0;
#X connect 4 0 6 0;
#X connect 4 1 2 0;
#X connect 6 0 5 0;
#X connect 7 0 5 0;
#X connect 8 0 16 0;
#X connect 8 1 7 0;
#X connect 9 0 11 0;
#X connect 11 0 18 0;
#X connect 12 0 13 0;
#X connect 13 0 16 1;
#X connect 14 0 12 0;
#X connect 15 0 9 0;
#X connect 16 0 15 0;
#X connect 17 0 14 0;
#X connect 18 0 19 0;
#X connect 20 0 5 0;
#X connect 20 0 21 0;
#X connect 21 0 23 0;
#X connect 23 0 22 0;
#X restore 69 42 pd record/play;
#X restore 1132 367 pd audio;
#X obj 201 394 vu 30 120 vu empty -1 -8 0 10 -66577 -1 1 0;
