#N canvas 147 22 1097 634 10;
#X obj 89 41 adc~;
#X obj 89 71 s~ mic;
#N canvas 554 22 624 572 buffer1_write 0;
#X obj 39 113 tgl 15 0 empty empty empty 17 7 0 10 -262144 -1 -1 0
1;
#X msg 229 200 open loop1.wav;
#X obj 39 134 sel 0 1;
#X obj 104 369 writesf~ 1;
#X msg 184 200 start;
#X msg 66 249 stop;
#X obj 39 444 soundfiler;
#N canvas 0 22 450 278 (subpatch) 0;
#X array \$0-loop1 47616 float 2;
#X coords 0 1 47616 -1 200 140 1 0 0;
#X restore 371 77 graph;
#X obj 54 346 \$0;
#X floatatom 54 368 5 0 0 0 - - -, f 5;
#X obj 54 326 bng 15 250 50 0 empty empty empty 17 7 0 10 -262144 -1
-1;
#X obj 39 390 f;
#X obj 54 300 loadbang;
#X floatatom 39 519 5 0 0 0 - - -, f 5;
#X obj 202 286 env~;
#X obj 202 330 s vu;
#X obj 202 308 - 100;
#X obj 118 336 *~;
#X obj 133 312 line~;
#X obj 133 265 tgl 15 0 empty empty empty 17 7 0 10 -262144 -1 -1 0
1;
#X obj 39 178 t b b;
#X obj 39 228 t b b;
#X msg 98 201 0;
#X obj 154 175 t b b b;
#X msg 154 200 1;
#X obj 39 201 del 20;
#X msg 133 289 \$1 20;
#X obj 39 466 t f f;
#X obj 141 445 / 44.1;
#X msg 39 415 read -resize loop1.wav \$1-loop1;
#N canvas 628 39 265 562 normalizefaktor_1 0;
#X obj 53 36 inlet;
#X obj 53 106 until;
#X obj 53 193 t f f;
#X msg 53 144 1;
#X obj 53 166 +;
#X msg 102 147 0;
#X floatatom 53 220 5 0 0 0 - - -, f 5;
#X obj 53 273 abs;
#X obj 53 407 t f f;
#X obj 53 356 sel 1;
#X obj 53 383 f;
#X obj 53 334 > 0;
#X obj 53 303 t f f;
#X floatatom 53 434 5 0 0 0 - - -, f 5;
#X obj 53 483 outlet;
#X obj 53 72 t f b b;
#X msg 145 315 0;
#X obj 53 459 expr 1/$f1;
#X obj 53 246 tabread \$0-loop1;
#X connect 0 0 15 0;
#X connect 1 0 3 0;
#X connect 2 0 6 0;
#X connect 2 1 4 1;
#X connect 3 0 4 0;
#X connect 4 0 2 0;
#X connect 5 0 4 1;
#X connect 6 0 18 0;
#X connect 7 0 12 0;
#X connect 8 0 13 0;
#X connect 8 1 11 1;
#X connect 9 0 10 0;
#X connect 10 0 8 0;
#X connect 11 0 9 0;
#X connect 12 0 11 0;
#X connect 12 1 10 1;
#X connect 13 0 17 0;
#X connect 15 0 1 0;
#X connect 15 1 5 0;
#X connect 15 2 16 0;
#X connect 16 0 11 1;
#X connect 17 0 14 0;
#X connect 18 0 7 0;
#X restore 39 497 pd normalizefaktor_1;
#X obj 39 541 s normalizefaktor_1;
#X obj 118 41 r~ mic;
#X obj 141 466 s size1;
#X obj 39 272 del 5;
#X obj 39 88 inlet;
#X connect 0 0 2 0;
#X connect 1 0 3 0;
#X connect 2 0 20 0;
#X connect 2 1 23 0;
#X connect 4 0 3 0;
#X connect 5 0 3 0;
#X connect 6 0 27 0;
#X connect 8 0 9 0;
#X connect 9 0 11 1;
#X connect 10 0 8 0;
#X connect 11 0 29 0;
#X connect 12 0 10 0;
#X connect 13 0 31 0;
#X connect 14 0 16 0;
#X connect 16 0 15 0;
#X connect 17 0 3 0;
#X connect 18 0 17 1;
#X connect 19 0 26 0;
#X connect 20 0 25 0;
#X connect 20 1 22 0;
#X connect 21 0 34 0;
#X connect 21 1 5 0;
#X connect 22 0 19 0;
#X connect 23 0 24 0;
#X connect 23 1 4 0;
#X connect 23 2 1 0;
#X connect 24 0 19 0;
#X connect 25 0 21 0;
#X connect 26 0 18 0;
#X connect 27 0 30 0;
#X connect 27 1 28 0;
#X connect 28 0 33 0;
#X connect 29 0 6 0;
#X connect 30 0 13 0;
#X connect 32 0 17 0;
#X connect 32 0 14 0;
#X connect 34 0 11 0;
#X connect 35 0 0 0;
#X restore 91 139 pd buffer1_write;
#N canvas 157 22 643 647 buffer2_write 0;
#X obj 39 113 tgl 15 0 empty empty empty 17 7 0 10 -262144 -1 -1 0
1;
#X obj 39 134 sel 0 1;
#X obj 104 369 writesf~ 1;
#X msg 184 200 start;
#X msg 66 249 stop;
#X obj 39 454 soundfiler;
#N canvas 0 22 450 278 (subpatch) 0;
#X array \$0-loop2 71040 float 2;
#X coords 0 1 71040 -1 200 140 1 0 0;
#X restore 371 77 graph;
#X obj 54 356 \$0;
#X floatatom 54 378 5 0 0 0 - - -, f 5;
#X obj 54 336 bng 15 250 50 0 empty empty empty 17 7 0 10 -262144 -1
-1;
#X obj 39 400 f;
#X obj 54 310 loadbang;
#X floatatom 39 529 5 0 0 0 - - -, f 5;
#X obj 202 286 env~;
#X obj 202 330 s vu;
#X obj 202 308 - 100;
#X obj 118 336 *~;
#X obj 133 312 line~;
#X obj 133 265 tgl 15 0 empty empty empty 17 7 0 10 -262144 -1 -1 0
1;
#X obj 39 178 t b b;
#X obj 39 228 t b b;
#X msg 98 201 0;
#X obj 154 175 t b b b;
#X msg 154 200 1;
#X obj 39 201 del 20;
#X msg 133 289 \$1 20;
#X obj 39 476 t f f;
#X obj 141 455 / 44.1;
#X obj 118 41 r~ mic;
#X msg 39 425 read -resize loop2.wav \$1-loop2;
#N canvas 628 39 265 562 normalizefaktor_2 0;
#X obj 53 36 inlet;
#X obj 53 106 until;
#X obj 53 193 t f f;
#X msg 53 144 1;
#X obj 53 166 +;
#X msg 102 147 0;
#X floatatom 53 220 5 0 0 0 - - -, f 5;
#X obj 53 273 abs;
#X obj 53 407 t f f;
#X obj 53 356 sel 1;
#X obj 53 383 f;
#X obj 53 334 > 0;
#X obj 53 303 t f f;
#X floatatom 53 434 5 0 0 0 - - -, f 5;
#X obj 53 483 outlet;
#X obj 53 72 t f b b;
#X msg 145 315 0;
#X obj 53 459 expr 1/$f1;
#X obj 53 246 tabread \$0-loop2;
#X connect 0 0 15 0;
#X connect 1 0 3 0;
#X connect 2 0 6 0;
#X connect 2 1 4 1;
#X connect 3 0 4 0;
#X connect 4 0 2 0;
#X connect 5 0 4 1;
#X connect 6 0 18 0;
#X connect 7 0 12 0;
#X connect 8 0 13 0;
#X connect 8 1 11 1;
#X connect 9 0 10 0;
#X connect 10 0 8 0;
#X connect 11 0 9 0;
#X connect 12 0 11 0;
#X connect 12 1 10 1;
#X connect 13 0 17 0;
#X connect 15 0 1 0;
#X connect 15 1 5 0;
#X connect 15 2 16 0;
#X connect 16 0 11 1;
#X connect 17 0 14 0;
#X connect 18 0 7 0;
#X restore 39 507 pd normalizefaktor_2;
#X obj 39 551 s normalizefaktor_2;
#X msg 229 200 open loop2.wav;
#X obj 141 476 s size2;
#X obj 39 280 del 5;
#X obj 39 88 inlet;
#X connect 0 0 1 0;
#X connect 1 0 19 0;
#X connect 1 1 22 0;
#X connect 3 0 2 0;
#X connect 4 0 2 0;
#X connect 5 0 26 0;
#X connect 7 0 8 0;
#X connect 8 0 10 1;
#X connect 9 0 7 0;
#X connect 10 0 29 0;
#X connect 11 0 9 0;
#X connect 12 0 31 0;
#X connect 13 0 15 0;
#X connect 15 0 14 0;
#X connect 16 0 2 0;
#X connect 17 0 16 1;
#X connect 18 0 25 0;
#X connect 19 0 24 0;
#X connect 19 1 21 0;
#X connect 20 0 34 0;
#X connect 20 1 4 0;
#X connect 21 0 18 0;
#X connect 22 0 23 0;
#X connect 22 1 3 0;
#X connect 22 2 32 0;
#X connect 23 0 18 0;
#X connect 24 0 20 0;
#X connect 25 0 17 0;
#X connect 26 0 30 0;
#X connect 26 1 27 0;
#X connect 27 0 33 0;
#X connect 28 0 16 0;
#X connect 28 0 13 0;
#X connect 29 0 5 0;
#X connect 30 0 12 0;
#X connect 32 0 2 0;
#X connect 34 0 10 0;
#X connect 35 0 0 0;
#X restore 201 139 pd buffer2_write;
#N canvas 157 22 648 664 buffer3_write 0;
#X obj 39 113 tgl 15 0 empty empty empty 17 7 0 10 -262144 -1 -1 0
1;
#X obj 39 134 sel 0 1;
#X obj 104 369 writesf~ 1;
#X msg 184 200 start;
#X msg 66 249 stop;
#X obj 39 464 soundfiler;
#N canvas 0 22 450 278 (subpatch) 0;
#X array \$0-loop3 41344 float 2;
#X coords 0 1 41344 -1 200 140 1 0 0;
#X restore 371 77 graph;
#X obj 54 366 \$0;
#X floatatom 54 388 5 0 0 0 - - -, f 5;
#X obj 54 346 bng 15 250 50 0 empty empty empty 17 7 0 10 -262144 -1
-1;
#X obj 39 410 f;
#X obj 54 320 loadbang;
#X floatatom 39 539 5 0 0 0 - - -, f 5;
#X obj 202 286 env~;
#X obj 202 330 s vu;
#X obj 202 308 - 100;
#X obj 118 336 *~;
#X obj 133 312 line~;
#X obj 133 265 tgl 15 0 empty empty empty 17 7 0 10 -262144 -1 -1 0
1;
#X obj 39 178 t b b;
#X obj 39 228 t b b;
#X msg 98 201 0;
#X obj 154 175 t b b b;
#X msg 154 200 1;
#X obj 39 201 del 20;
#X msg 133 289 \$1 20;
#X obj 39 486 t f f;
#X obj 141 465 / 44.1;
#X obj 118 41 r~ mic;
#X msg 229 200 open loop3.wav;
#X msg 39 435 read -resize loop3.wav \$1-loop3;
#N canvas 628 39 265 562 normalizefaktor_3 0;
#X obj 53 36 inlet;
#X obj 53 106 until;
#X obj 53 193 t f f;
#X msg 53 144 1;
#X obj 53 166 +;
#X msg 102 147 0;
#X floatatom 53 220 5 0 0 0 - - -, f 5;
#X obj 53 273 abs;
#X obj 53 407 t f f;
#X obj 53 356 sel 1;
#X obj 53 383 f;
#X obj 53 334 > 0;
#X obj 53 303 t f f;
#X floatatom 53 434 5 0 0 0 - - -, f 5;
#X obj 53 483 outlet;
#X obj 53 72 t f b b;
#X msg 145 315 0;
#X obj 53 459 expr 1/$f1;
#X obj 53 246 tabread \$0-loop3;
#X connect 0 0 15 0;
#X connect 1 0 3 0;
#X connect 2 0 6 0;
#X connect 2 1 4 1;
#X connect 3 0 4 0;
#X connect 4 0 2 0;
#X connect 5 0 4 1;
#X connect 6 0 18 0;
#X connect 7 0 12 0;
#X connect 8 0 13 0;
#X connect 8 1 11 1;
#X connect 9 0 10 0;
#X connect 10 0 8 0;
#X connect 11 0 9 0;
#X connect 12 0 11 0;
#X connect 12 1 10 1;
#X connect 13 0 17 0;
#X connect 15 0 1 0;
#X connect 15 1 5 0;
#X connect 15 2 16 0;
#X connect 16 0 11 1;
#X connect 17 0 14 0;
#X connect 18 0 7 0;
#X restore 39 517 pd normalizefaktor_3;
#X obj 39 561 s normalizefaktor_3;
#X obj 141 486 s size3;
#X obj 39 270 del 5;
#X obj 39 88 inlet;
#X connect 0 0 1 0;
#X connect 1 0 19 0;
#X connect 1 1 22 0;
#X connect 3 0 2 0;
#X connect 4 0 2 0;
#X connect 5 0 26 0;
#X connect 7 0 8 0;
#X connect 8 0 10 1;
#X connect 9 0 7 0;
#X connect 10 0 30 0;
#X connect 11 0 9 0;
#X connect 12 0 32 0;
#X connect 13 0 15 0;
#X connect 15 0 14 0;
#X connect 16 0 2 0;
#X connect 17 0 16 1;
#X connect 18 0 25 0;
#X connect 19 0 24 0;
#X connect 19 1 21 0;
#X connect 20 0 34 0;
#X connect 20 1 4 0;
#X connect 21 0 18 0;
#X connect 22 0 23 0;
#X connect 22 1 3 0;
#X connect 22 2 29 0;
#X connect 23 0 18 0;
#X connect 24 0 20 0;
#X connect 25 0 17 0;
#X connect 26 0 31 0;
#X connect 26 1 27 0;
#X connect 27 0 33 0;
#X connect 28 0 16 0;
#X connect 28 0 13 0;
#X connect 29 0 2 0;
#X connect 30 0 5 0;
#X connect 31 0 12 0;
#X connect 34 0 10 0;
#X connect 35 0 0 0;
#X restore 311 139 pd buffer3_write;
#N canvas 157 22 624 572 buffer4_write 0;
#X obj 39 113 tgl 15 0 empty empty empty 17 7 0 10 -262144 -1 -1 0
1;
#X obj 39 134 sel 0 1;
#X obj 104 369 writesf~ 1;
#X msg 184 200 start;
#X msg 66 249 stop;
#X obj 39 454 soundfiler;
#N canvas 0 22 450 278 (subpatch) 0;
#X array \$0-loop4 30656 float 2;
#X coords 0 1 30656 -1 200 140 1 0 0;
#X restore 371 77 graph;
#X obj 54 356 \$0;
#X floatatom 54 378 5 0 0 0 - - -, f 5;
#X obj 54 336 bng 15 250 50 0 empty empty empty 17 7 0 10 -262144 -1
-1;
#X obj 39 400 f;
#X obj 54 310 loadbang;
#X floatatom 39 529 5 0 0 0 - - -, f 5;
#X obj 202 286 env~;
#X obj 202 330 s vu;
#X obj 202 308 - 100;
#X obj 118 336 *~;
#X obj 133 312 line~;
#X obj 133 265 tgl 15 0 empty empty empty 17 7 0 10 -262144 -1 -1 0
1;
#X obj 39 178 t b b;
#X obj 39 228 t b b;
#X msg 98 201 0;
#X obj 154 175 t b b b;
#X msg 154 200 1;
#X obj 39 201 del 20;
#X msg 133 289 \$1 20;
#X obj 39 476 t f f;
#X obj 141 455 / 44.1;
#X obj 118 41 r~ mic;
#X msg 229 200 open loop4.wav;
#X msg 39 425 read -resize loop4.wav \$1-loop4;
#N canvas 628 39 265 562 normalizefaktor_4 0;
#X obj 53 36 inlet;
#X obj 53 106 until;
#X obj 53 193 t f f;
#X msg 53 144 1;
#X obj 53 166 +;
#X msg 102 147 0;
#X floatatom 53 220 5 0 0 0 - - -, f 5;
#X obj 53 273 abs;
#X obj 53 407 t f f;
#X obj 53 356 sel 1;
#X obj 53 383 f;
#X obj 53 334 > 0;
#X obj 53 303 t f f;
#X floatatom 53 434 5 0 0 0 - - -, f 5;
#X obj 53 483 outlet;
#X obj 53 72 t f b b;
#X msg 145 315 0;
#X obj 53 459 expr 1/$f1;
#X obj 53 246 tabread \$0-loop4;
#X connect 0 0 15 0;
#X connect 1 0 3 0;
#X connect 2 0 6 0;
#X connect 2 1 4 1;
#X connect 3 0 4 0;
#X connect 4 0 2 0;
#X connect 5 0 4 1;
#X connect 6 0 18 0;
#X connect 7 0 12 0;
#X connect 8 0 13 0;
#X connect 8 1 11 1;
#X connect 9 0 10 0;
#X connect 10 0 8 0;
#X connect 11 0 9 0;
#X connect 12 0 11 0;
#X connect 12 1 10 1;
#X connect 13 0 17 0;
#X connect 15 0 1 0;
#X connect 15 1 5 0;
#X connect 15 2 16 0;
#X connect 16 0 11 1;
#X connect 17 0 14 0;
#X connect 18 0 7 0;
#X restore 39 507 pd normalizefaktor_4;
#X obj 39 551 s normalizefaktor_4;
#X obj 141 476 s size4;
#X obj 39 280 del 5;
#X obj 39 88 inlet;
#X connect 0 0 1 0;
#X connect 1 0 19 0;
#X connect 1 1 22 0;
#X connect 3 0 2 0;
#X connect 4 0 2 0;
#X connect 5 0 26 0;
#X connect 7 0 8 0;
#X connect 8 0 10 1;
#X connect 9 0 7 0;
#X connect 10 0 30 0;
#X connect 11 0 9 0;
#X connect 12 0 32 0;
#X connect 13 0 15 0;
#X connect 15 0 14 0;
#X connect 16 0 2 0;
#X connect 17 0 16 1;
#X connect 18 0 25 0;
#X connect 19 0 24 0;
#X connect 19 1 21 0;
#X connect 20 0 34 0;
#X connect 20 1 4 0;
#X connect 21 0 18 0;
#X connect 22 0 23 0;
#X connect 22 1 3 0;
#X connect 22 2 29 0;
#X connect 23 0 18 0;
#X connect 24 0 20 0;
#X connect 25 0 17 0;
#X connect 26 0 31 0;
#X connect 26 1 27 0;
#X connect 27 0 33 0;
#X connect 28 0 16 0;
#X connect 28 0 13 0;
#X connect 29 0 2 0;
#X connect 30 0 5 0;
#X connect 31 0 12 0;
#X connect 34 0 10 0;
#X connect 35 0 0 0;
#X restore 421 139 pd buffer4_write;
#N canvas 157 22 624 646 buffer5_write 0;
#X obj 39 113 tgl 15 0 empty empty empty 17 7 0 10 -262144 -1 -1 0
1;
#X obj 39 134 sel 0 1;
#X obj 104 369 writesf~ 1;
#X msg 184 200 start;
#X msg 66 249 stop;
#X obj 39 444 soundfiler;
#N canvas 0 22 450 278 (subpatch) 0;
#X array \$0-loop5 32000 float 2;
#X coords 0 1 32000 -1 200 140 1 0 0;
#X restore 371 77 graph;
#X obj 54 346 \$0;
#X floatatom 54 368 5 0 0 0 - - -, f 5;
#X obj 54 326 bng 15 250 50 0 empty empty empty 17 7 0 10 -262144 -1
-1;
#X obj 39 390 f;
#X obj 54 300 loadbang;
#X floatatom 39 519 5 0 0 0 - - -, f 5;
#X obj 202 286 env~;
#X obj 202 330 s vu;
#X obj 202 308 - 100;
#X obj 118 336 *~;
#X obj 133 312 line~;
#X obj 133 265 tgl 15 0 empty empty empty 17 7 0 10 -262144 -1 -1 0
1;
#X obj 39 178 t b b;
#X obj 39 228 t b b;
#X msg 98 201 0;
#X obj 154 175 t b b b;
#X msg 154 200 1;
#X obj 39 201 del 20;
#X msg 133 289 \$1 20;
#X obj 39 466 t f f;
#X obj 141 445 / 44.1;
#X obj 118 41 r~ mic;
#X msg 229 200 open loop5.wav;
#X msg 39 415 read -resize loop5.wav \$1-loop5;
#N canvas 628 39 265 562 normalizefaktor_5 0;
#X obj 53 36 inlet;
#X obj 53 106 until;
#X obj 53 193 t f f;
#X msg 53 144 1;
#X obj 53 166 +;
#X msg 102 147 0;
#X floatatom 53 220 5 0 0 0 - - -, f 5;
#X obj 53 273 abs;
#X obj 53 407 t f f;
#X obj 53 356 sel 1;
#X obj 53 383 f;
#X obj 53 334 > 0;
#X obj 53 303 t f f;
#X floatatom 53 434 5 0 0 0 - - -, f 5;
#X obj 53 483 outlet;
#X obj 53 72 t f b b;
#X msg 145 315 0;
#X obj 53 459 expr 1/$f1;
#X obj 53 246 tabread \$0-loop5;
#X connect 0 0 15 0;
#X connect 1 0 3 0;
#X connect 2 0 6 0;
#X connect 2 1 4 1;
#X connect 3 0 4 0;
#X connect 4 0 2 0;
#X connect 5 0 4 1;
#X connect 6 0 18 0;
#X connect 7 0 12 0;
#X connect 8 0 13 0;
#X connect 8 1 11 1;
#X connect 9 0 10 0;
#X connect 10 0 8 0;
#X connect 11 0 9 0;
#X connect 12 0 11 0;
#X connect 12 1 10 1;
#X connect 13 0 17 0;
#X connect 15 0 1 0;
#X connect 15 1 5 0;
#X connect 15 2 16 0;
#X connect 16 0 11 1;
#X connect 17 0 14 0;
#X connect 18 0 7 0;
#X restore 39 497 pd normalizefaktor_5;
#X obj 39 541 s normalizefaktor_5;
#X obj 141 466 s size5;
#X obj 39 270 del 5;
#X obj 39 88 inlet;
#X connect 0 0 1 0;
#X connect 1 0 19 0;
#X connect 1 1 22 0;
#X connect 3 0 2 0;
#X connect 4 0 2 0;
#X connect 5 0 26 0;
#X connect 7 0 8 0;
#X connect 8 0 10 1;
#X connect 9 0 7 0;
#X connect 10 0 30 0;
#X connect 11 0 9 0;
#X connect 12 0 32 0;
#X connect 13 0 15 0;
#X connect 15 0 14 0;
#X connect 16 0 2 0;
#X connect 17 0 16 1;
#X connect 18 0 25 0;
#X connect 19 0 24 0;
#X connect 19 1 21 0;
#X connect 20 0 34 0;
#X connect 20 1 4 0;
#X connect 21 0 18 0;
#X connect 22 0 23 0;
#X connect 22 1 3 0;
#X connect 22 2 29 0;
#X connect 23 0 18 0;
#X connect 24 0 20 0;
#X connect 25 0 17 0;
#X connect 26 0 31 0;
#X connect 26 1 27 0;
#X connect 27 0 33 0;
#X connect 28 0 16 0;
#X connect 28 0 13 0;
#X connect 29 0 2 0;
#X connect 30 0 5 0;
#X connect 31 0 12 0;
#X connect 34 0 10 0;
#X connect 35 0 0 0;
#X restore 531 139 pd buffer5_write;
#N canvas 211 22 563 704 buffer1_read 0;
#X obj 36 241 phasor~;
#X obj 36 127 expr~ pow(2 \, ($v1/12));
#X obj 36 200 /~;
#X obj 51 179 /~ 1000;
#X obj 36 327 *~;
#X obj 61 305 *~ 44.1;
#X obj 36 416 +~;
#X obj 51 390 *~ 44.1;
#X obj 51 368 samphold~;
#X obj 51 486 cos~;
#X obj 51 508 *~ -0.5;
#X obj 51 530 +~ 0.5;
#X obj 36 556 *~;
#X obj 176 327 *~;
#X obj 201 305 *~ 44.1;
#X obj 176 416 +~;
#X obj 191 390 *~ 44.1;
#X obj 191 368 samphold~;
#X obj 191 486 cos~;
#X obj 191 508 *~ -0.5;
#X obj 191 530 +~ 0.5;
#X obj 176 556 *~;
#X obj 176 245 +~ 0.5;
#X obj 176 267 wrap~;
#X obj 36 578 +~;
#X obj 36 23 inlet;
#X obj 36 663 throw~ loop-play;
#X obj 36 86 line~;
#X floatatom 299 652 8 0 0 0 - - -, f 8;
#X obj 299 575 \$0;
#X obj 299 544 bng 15 250 50 0 empty empty empty 17 7 0 10 -262144
-1 -1;
#X obj 299 517 loadbang;
#X obj 299 630 expr size("$s1");
#X obj 305 335 phasor~ 1;
#X obj 326 178 / 1000;
#X obj 326 200 expr 1/$f1;
#X obj 305 367 *~;
#X obj 305 389 +~;
#X obj 305 91 line~;
#X obj 36 448 tabread4~ \$0-loop1;
#X obj 176 448 tabread4~ \$0-loop1;
#X obj 305 260 *~ 1;
#X msg 299 607 symbol \$1-loop1;
#X obj 326 122 r size1;
#X obj 326 144 t f f;
#X obj 36 633 *~;
#X obj 71 612 line~;
#X msg 394 312 0;
#X obj 367 258 t f f;
#X obj 394 285 sel 1;
#X msg 71 589 \$1 50;
#X obj 367 224 tgl 15 0 empty empty empty 17 7 0 10 -262144 -1 -1 0
1;
#X obj 36 48 route transp tempo an/aus;
#X obj 106 157 sig~ 80;
#X connect 0 0 4 0;
#X connect 0 0 8 1;
#X connect 0 0 9 0;
#X connect 0 0 22 0;
#X connect 1 0 2 0;
#X connect 2 0 0 0;
#X connect 3 0 2 1;
#X connect 4 0 6 0;
#X connect 5 0 4 1;
#X connect 6 0 39 0;
#X connect 7 0 6 1;
#X connect 8 0 7 0;
#X connect 9 0 10 0;
#X connect 10 0 11 0;
#X connect 11 0 12 1;
#X connect 12 0 24 0;
#X connect 13 0 15 0;
#X connect 14 0 13 1;
#X connect 15 0 40 0;
#X connect 16 0 15 1;
#X connect 17 0 16 0;
#X connect 18 0 19 0;
#X connect 19 0 20 0;
#X connect 20 0 21 1;
#X connect 21 0 24 1;
#X connect 22 0 23 0;
#X connect 23 0 13 0;
#X connect 23 0 17 1;
#X connect 23 0 18 0;
#X connect 24 0 45 0;
#X connect 25 0 52 0;
#X connect 27 0 1 0;
#X connect 29 0 42 0;
#X connect 30 0 29 0;
#X connect 31 0 30 0;
#X connect 32 0 28 0;
#X connect 33 0 36 0;
#X connect 34 0 35 0;
#X connect 35 0 41 1;
#X connect 36 0 37 0;
#X connect 37 0 17 0;
#X connect 37 0 8 0;
#X connect 38 0 41 0;
#X connect 39 0 12 0;
#X connect 40 0 21 0;
#X connect 41 0 33 0;
#X connect 42 0 32 0;
#X connect 43 0 44 0;
#X connect 44 0 34 0;
#X connect 44 1 36 1;
#X connect 45 0 26 0;
#X connect 46 0 45 1;
#X connect 47 0 33 1;
#X connect 48 0 50 0;
#X connect 48 1 49 0;
#X connect 49 0 47 0;
#X connect 50 0 46 0;
#X connect 51 0 48 0;
#X connect 52 0 27 0;
#X connect 52 1 38 0;
#X connect 52 2 51 0;
#X connect 53 0 3 0;
#X connect 53 0 5 0;
#X connect 53 0 14 0;
#X restore 91 397 pd buffer1_read;
#X obj 91 498 catch~ loop-play;
#X obj 91 565 dac~;
#N canvas 211 22 563 704 buffer2_read 0;
#X obj 36 241 phasor~;
#X obj 36 127 expr~ pow(2 \, ($v1/12));
#X obj 36 200 /~;
#X obj 51 179 /~ 1000;
#X obj 36 327 *~;
#X obj 61 305 *~ 44.1;
#X obj 36 416 +~;
#X obj 51 390 *~ 44.1;
#X obj 51 368 samphold~;
#X obj 51 486 cos~;
#X obj 51 508 *~ -0.5;
#X obj 51 530 +~ 0.5;
#X obj 36 556 *~;
#X obj 176 327 *~;
#X obj 201 305 *~ 44.1;
#X obj 176 416 +~;
#X obj 191 390 *~ 44.1;
#X obj 191 368 samphold~;
#X obj 191 486 cos~;
#X obj 191 508 *~ -0.5;
#X obj 191 530 +~ 0.5;
#X obj 176 556 *~;
#X obj 176 245 +~ 0.5;
#X obj 176 267 wrap~;
#X obj 36 578 +~;
#X obj 36 23 inlet;
#X obj 36 663 throw~ loop-play;
#X obj 36 86 line~;
#X obj 305 335 phasor~ 1;
#X obj 326 178 / 1000;
#X obj 326 200 expr 1/$f1;
#X obj 305 367 *~;
#X obj 305 389 +~;
#X obj 305 91 line~;
#X obj 305 260 *~ 1;
#X obj 326 144 t f f;
#X obj 36 633 *~;
#X obj 71 612 line~;
#X msg 394 312 0;
#X obj 367 258 t f f;
#X obj 394 285 sel 1;
#X msg 71 589 \$1 50;
#X obj 367 224 tgl 15 0 empty empty empty 17 7 0 10 -262144 -1 -1 0
1;
#X obj 106 157 sig~ 80;
#X obj 36 48 route transp tempo an/aus;
#X obj 36 448 tabread4~ \$0-loop2;
#X obj 176 448 tabread4~ \$0-loop2;
#X obj 326 122 r size2;
#X connect 0 0 4 0;
#X connect 0 0 8 1;
#X connect 0 0 9 0;
#X connect 0 0 22 0;
#X connect 1 0 2 0;
#X connect 2 0 0 0;
#X connect 3 0 2 1;
#X connect 4 0 6 0;
#X connect 5 0 4 1;
#X connect 6 0 45 0;
#X connect 7 0 6 1;
#X connect 8 0 7 0;
#X connect 9 0 10 0;
#X connect 10 0 11 0;
#X connect 11 0 12 1;
#X connect 12 0 24 0;
#X connect 13 0 15 0;
#X connect 14 0 13 1;
#X connect 15 0 46 0;
#X connect 16 0 15 1;
#X connect 17 0 16 0;
#X connect 18 0 19 0;
#X connect 19 0 20 0;
#X connect 20 0 21 1;
#X connect 21 0 24 1;
#X connect 22 0 23 0;
#X connect 23 0 13 0;
#X connect 23 0 17 1;
#X connect 23 0 18 0;
#X connect 24 0 36 0;
#X connect 25 0 44 0;
#X connect 27 0 1 0;
#X connect 28 0 31 0;
#X connect 29 0 30 0;
#X connect 30 0 34 1;
#X connect 31 0 32 0;
#X connect 32 0 17 0;
#X connect 32 0 8 0;
#X connect 33 0 34 0;
#X connect 34 0 28 0;
#X connect 35 0 29 0;
#X connect 35 1 31 1;
#X connect 36 0 26 0;
#X connect 37 0 36 1;
#X connect 38 0 28 1;
#X connect 39 0 41 0;
#X connect 39 1 40 0;
#X connect 40 0 38 0;
#X connect 41 0 37 0;
#X connect 42 0 39 0;
#X connect 43 0 3 0;
#X connect 43 0 5 0;
#X connect 43 0 14 0;
#X connect 44 0 27 0;
#X connect 44 1 33 0;
#X connect 44 2 42 0;
#X connect 45 0 12 0;
#X connect 46 0 21 0;
#X connect 47 0 35 0;
#X restore 201 397 pd buffer2_read;
#N canvas 211 22 563 704 buffer3_read 0;
#X obj 36 241 phasor~;
#X obj 36 127 expr~ pow(2 \, ($v1/12));
#X obj 36 200 /~;
#X obj 51 179 /~ 1000;
#X obj 36 327 *~;
#X obj 61 305 *~ 44.1;
#X obj 36 416 +~;
#X obj 51 390 *~ 44.1;
#X obj 51 368 samphold~;
#X obj 51 486 cos~;
#X obj 51 508 *~ -0.5;
#X obj 51 530 +~ 0.5;
#X obj 36 556 *~;
#X obj 176 327 *~;
#X obj 201 305 *~ 44.1;
#X obj 176 416 +~;
#X obj 191 390 *~ 44.1;
#X obj 191 368 samphold~;
#X obj 191 486 cos~;
#X obj 191 508 *~ -0.5;
#X obj 191 530 +~ 0.5;
#X obj 176 556 *~;
#X obj 176 245 +~ 0.5;
#X obj 176 267 wrap~;
#X obj 36 578 +~;
#X obj 36 23 inlet;
#X obj 36 663 throw~ loop-play;
#X obj 36 86 line~;
#X obj 305 335 phasor~ 1;
#X obj 326 178 / 1000;
#X obj 326 200 expr 1/$f1;
#X obj 305 367 *~;
#X obj 305 389 +~;
#X obj 305 91 line~;
#X obj 305 260 *~ 1;
#X obj 326 144 t f f;
#X obj 36 633 *~;
#X obj 71 612 line~;
#X msg 394 312 0;
#X obj 367 258 t f f;
#X obj 394 285 sel 1;
#X msg 71 589 \$1 50;
#X obj 367 224 tgl 15 0 empty empty empty 17 7 0 10 -262144 -1 -1 0
1;
#X obj 106 157 sig~ 80;
#X obj 36 48 route transp tempo an/aus;
#X obj 36 448 tabread4~ \$0-loop3;
#X obj 176 448 tabread4~ \$0-loop3;
#X obj 326 122 r size3;
#X connect 0 0 4 0;
#X connect 0 0 8 1;
#X connect 0 0 9 0;
#X connect 0 0 22 0;
#X connect 1 0 2 0;
#X connect 2 0 0 0;
#X connect 3 0 2 1;
#X connect 4 0 6 0;
#X connect 5 0 4 1;
#X connect 6 0 45 0;
#X connect 7 0 6 1;
#X connect 8 0 7 0;
#X connect 9 0 10 0;
#X connect 10 0 11 0;
#X connect 11 0 12 1;
#X connect 12 0 24 0;
#X connect 13 0 15 0;
#X connect 14 0 13 1;
#X connect 15 0 46 0;
#X connect 16 0 15 1;
#X connect 17 0 16 0;
#X connect 18 0 19 0;
#X connect 19 0 20 0;
#X connect 20 0 21 1;
#X connect 21 0 24 1;
#X connect 22 0 23 0;
#X connect 23 0 13 0;
#X connect 23 0 17 1;
#X connect 23 0 18 0;
#X connect 24 0 36 0;
#X connect 25 0 44 0;
#X connect 27 0 1 0;
#X connect 28 0 31 0;
#X connect 29 0 30 0;
#X connect 30 0 34 1;
#X connect 31 0 32 0;
#X connect 32 0 17 0;
#X connect 32 0 8 0;
#X connect 33 0 34 0;
#X connect 34 0 28 0;
#X connect 35 0 29 0;
#X connect 35 1 31 1;
#X connect 36 0 26 0;
#X connect 37 0 36 1;
#X connect 38 0 28 1;
#X connect 39 0 41 0;
#X connect 39 1 40 0;
#X connect 40 0 38 0;
#X connect 41 0 37 0;
#X connect 42 0 39 0;
#X connect 43 0 3 0;
#X connect 43 0 5 0;
#X connect 43 0 14 0;
#X connect 44 0 27 0;
#X connect 44 1 33 0;
#X connect 44 2 42 0;
#X connect 45 0 12 0;
#X connect 46 0 21 0;
#X connect 47 0 35 0;
#X restore 311 397 pd buffer3_read;
#N canvas 211 22 563 704 buffer4_read 0;
#X obj 36 241 phasor~;
#X obj 36 127 expr~ pow(2 \, ($v1/12));
#X obj 36 200 /~;
#X obj 51 179 /~ 1000;
#X obj 36 327 *~;
#X obj 61 305 *~ 44.1;
#X obj 36 416 +~;
#X obj 51 390 *~ 44.1;
#X obj 51 368 samphold~;
#X obj 51 486 cos~;
#X obj 51 508 *~ -0.5;
#X obj 51 530 +~ 0.5;
#X obj 36 556 *~;
#X obj 176 327 *~;
#X obj 201 305 *~ 44.1;
#X obj 176 416 +~;
#X obj 191 390 *~ 44.1;
#X obj 191 368 samphold~;
#X obj 191 486 cos~;
#X obj 191 508 *~ -0.5;
#X obj 191 530 +~ 0.5;
#X obj 176 556 *~;
#X obj 176 245 +~ 0.5;
#X obj 176 267 wrap~;
#X obj 36 578 +~;
#X obj 36 23 inlet;
#X obj 36 663 throw~ loop-play;
#X obj 36 86 line~;
#X obj 305 335 phasor~ 1;
#X obj 326 178 / 1000;
#X obj 326 200 expr 1/$f1;
#X obj 305 367 *~;
#X obj 305 389 +~;
#X obj 305 91 line~;
#X obj 305 260 *~ 1;
#X obj 326 144 t f f;
#X obj 36 633 *~;
#X obj 71 612 line~;
#X msg 394 312 0;
#X obj 367 258 t f f;
#X obj 394 285 sel 1;
#X msg 71 589 \$1 50;
#X obj 367 224 tgl 15 0 empty empty empty 17 7 0 10 -262144 -1 -1 0
1;
#X obj 106 157 sig~ 80;
#X obj 36 48 route transp tempo an/aus;
#X obj 36 448 tabread4~ \$0-loop4;
#X obj 176 448 tabread4~ \$0-loop4;
#X obj 326 122 r size4;
#X connect 0 0 4 0;
#X connect 0 0 8 1;
#X connect 0 0 9 0;
#X connect 0 0 22 0;
#X connect 1 0 2 0;
#X connect 2 0 0 0;
#X connect 3 0 2 1;
#X connect 4 0 6 0;
#X connect 5 0 4 1;
#X connect 6 0 45 0;
#X connect 7 0 6 1;
#X connect 8 0 7 0;
#X connect 9 0 10 0;
#X connect 10 0 11 0;
#X connect 11 0 12 1;
#X connect 12 0 24 0;
#X connect 13 0 15 0;
#X connect 14 0 13 1;
#X connect 15 0 46 0;
#X connect 16 0 15 1;
#X connect 17 0 16 0;
#X connect 18 0 19 0;
#X connect 19 0 20 0;
#X connect 20 0 21 1;
#X connect 21 0 24 1;
#X connect 22 0 23 0;
#X connect 23 0 13 0;
#X connect 23 0 17 1;
#X connect 23 0 18 0;
#X connect 24 0 36 0;
#X connect 25 0 44 0;
#X connect 27 0 1 0;
#X connect 28 0 31 0;
#X connect 29 0 30 0;
#X connect 30 0 34 1;
#X connect 31 0 32 0;
#X connect 32 0 17 0;
#X connect 32 0 8 0;
#X connect 33 0 34 0;
#X connect 34 0 28 0;
#X connect 35 0 29 0;
#X connect 35 1 31 1;
#X connect 36 0 26 0;
#X connect 37 0 36 1;
#X connect 38 0 28 1;
#X connect 39 0 41 0;
#X connect 39 1 40 0;
#X connect 40 0 38 0;
#X connect 41 0 37 0;
#X connect 42 0 39 0;
#X connect 43 0 3 0;
#X connect 43 0 5 0;
#X connect 43 0 14 0;
#X connect 44 0 27 0;
#X connect 44 1 33 0;
#X connect 44 2 42 0;
#X connect 45 0 12 0;
#X connect 46 0 21 0;
#X connect 47 0 35 0;
#X restore 421 397 pd buffer4_read;
#N canvas 211 22 563 704 buffer5_read 0;
#X obj 36 241 phasor~;
#X obj 36 127 expr~ pow(2 \, ($v1/12));
#X obj 36 200 /~;
#X obj 51 179 /~ 1000;
#X obj 36 327 *~;
#X obj 61 305 *~ 44.1;
#X obj 36 416 +~;
#X obj 51 390 *~ 44.1;
#X obj 51 368 samphold~;
#X obj 51 486 cos~;
#X obj 51 508 *~ -0.5;
#X obj 51 530 +~ 0.5;
#X obj 36 556 *~;
#X obj 176 327 *~;
#X obj 201 305 *~ 44.1;
#X obj 176 416 +~;
#X obj 191 390 *~ 44.1;
#X obj 191 368 samphold~;
#X obj 191 486 cos~;
#X obj 191 508 *~ -0.5;
#X obj 191 530 +~ 0.5;
#X obj 176 556 *~;
#X obj 176 245 +~ 0.5;
#X obj 176 267 wrap~;
#X obj 36 578 +~;
#X obj 36 23 inlet;
#X obj 36 663 throw~ loop-play;
#X obj 36 86 line~;
#X obj 305 335 phasor~ 1;
#X obj 326 178 / 1000;
#X obj 326 200 expr 1/$f1;
#X obj 305 367 *~;
#X obj 305 389 +~;
#X obj 305 91 line~;
#X obj 305 260 *~ 1;
#X obj 326 144 t f f;
#X obj 36 633 *~;
#X obj 71 612 line~;
#X msg 394 312 0;
#X obj 367 258 t f f;
#X obj 394 285 sel 1;
#X msg 71 589 \$1 50;
#X obj 367 224 tgl 15 0 empty empty empty 17 7 0 10 -262144 -1 -1 0
1;
#X obj 106 157 sig~ 80;
#X obj 36 48 route transp tempo an/aus;
#X obj 36 448 tabread4~ \$0-loop5;
#X obj 176 448 tabread4~ \$0-loop5;
#X obj 326 122 r size5;
#X connect 0 0 4 0;
#X connect 0 0 8 1;
#X connect 0 0 9 0;
#X connect 0 0 22 0;
#X connect 1 0 2 0;
#X connect 2 0 0 0;
#X connect 3 0 2 1;
#X connect 4 0 6 0;
#X connect 5 0 4 1;
#X connect 6 0 45 0;
#X connect 7 0 6 1;
#X connect 8 0 7 0;
#X connect 9 0 10 0;
#X connect 10 0 11 0;
#X connect 11 0 12 1;
#X connect 12 0 24 0;
#X connect 13 0 15 0;
#X connect 14 0 13 1;
#X connect 15 0 46 0;
#X connect 16 0 15 1;
#X connect 17 0 16 0;
#X connect 18 0 19 0;
#X connect 19 0 20 0;
#X connect 20 0 21 1;
#X connect 21 0 24 1;
#X connect 22 0 23 0;
#X connect 23 0 13 0;
#X connect 23 0 17 1;
#X connect 23 0 18 0;
#X connect 24 0 36 0;
#X connect 25 0 44 0;
#X connect 27 0 1 0;
#X connect 28 0 31 0;
#X connect 29 0 30 0;
#X connect 30 0 34 1;
#X connect 31 0 32 0;
#X connect 32 0 17 0;
#X connect 32 0 8 0;
#X connect 33 0 34 0;
#X connect 34 0 28 0;
#X connect 35 0 29 0;
#X connect 35 1 31 1;
#X connect 36 0 26 0;
#X connect 37 0 36 1;
#X connect 38 0 28 1;
#X connect 39 0 41 0;
#X connect 39 1 40 0;
#X connect 40 0 38 0;
#X connect 41 0 37 0;
#X connect 42 0 39 0;
#X connect 43 0 3 0;
#X connect 43 0 5 0;
#X connect 43 0 14 0;
#X connect 44 0 27 0;
#X connect 44 1 33 0;
#X connect 44 2 42 0;
#X connect 45 0 12 0;
#X connect 46 0 21 0;
#X connect 47 0 35 0;
#X restore 531 397 pd buffer5_read;
#X obj 91 223 tgl 15 0 empty empty empty 17 7 0 10 -262144 -1 -1 0
1;
#X msg 91 246 an/aus \$1;
#X obj 201 223 tgl 15 0 empty empty empty 17 7 0 10 -262144 -1 -1 0
1;
#X msg 201 246 an/aus \$1;
#X obj 311 223 tgl 15 0 empty empty empty 17 7 0 10 -262144 -1 -1 0
1;
#X msg 311 246 an/aus \$1;
#X obj 421 223 tgl 15 0 empty empty empty 17 7 0 10 -262144 -1 -1 0
1;
#X msg 421 246 an/aus \$1;
#X obj 531 223 tgl 15 0 empty empty empty 17 7 0 10 -262144 -1 -1 0
1;
#X msg 531 246 an/aus \$1;
#X obj 111 370 route 1 2 3 4 5;
#X obj 91 113 tgl 15 0 empty empty empty 17 7 0 10 -262144 -1 -1 0
1;
#X obj 201 113 tgl 15 0 empty empty empty 17 7 0 10 -262144 -1 -1 0
1;
#X obj 311 113 tgl 15 0 empty empty empty 17 7 0 10 -262144 -1 -1 0
1;
#X obj 421 113 tgl 15 0 empty empty empty 17 7 0 10 -262144 -1 -1 0
1;
#X obj 531 113 tgl 15 0 empty empty empty 17 7 0 10 -262144 -1 -1 0
1;
#X obj 289 502 hsl 128 15 0 1 0 0 empty empty empty -2 -8 0 10 -262144
-1 -1 0 1;
#X msg 286 542 \$1 50;
#X obj 286 564 line~;
#X obj 91 535 *~;
#X floatatom 286 522 5 0 0 0 - - -, f 5;
#X msg 656 323 1 \$1 \, 2 \$1 \, 3 \$1 \, 4 \$1 \, 5 \$1;
#X floatatom 656 302 5 0 0 0 - - -, f 5;
#X msg 656 353 \$1 transp \$2;
#X text 692 297 Transposition in MIDI;
#X msg 846 323 1 \$1 \, 2 \$1 \, 3 \$1 \, 4 \$1 \, 5 \$1;
#X floatatom 846 302 5 0 0 0 - - -, f 5;
#X text 882 297 Tempo Faktor;
#X msg 846 353 \$1 tempo \$2;
#X msg 706 276 0;
#X obj 706 247 loadbang;
#X obj 896 247 loadbang;
#X msg 896 276 1;
#X obj 656 122 vsl 15 128 12 -12 0 0 empty empty empty 0 -9 0 10 -262144
-1 -1 6300 1;
#X obj 849 180 hsl 128 15 -1 1 0 0 empty empty empty -2 -8 0 10 -262144
-1 -1 6400 1;
#X obj 846 200 expr pow(4 \, $f1);
#X floatatom 846 222 5 0 0 0 - - -, f 5;
#X connect 0 0 1 0;
#X connect 8 0 33 0;
#X connect 14 0 15 0;
#X connect 15 0 7 0;
#X connect 16 0 17 0;
#X connect 17 0 10 0;
#X connect 18 0 19 0;
#X connect 19 0 11 0;
#X connect 20 0 21 0;
#X connect 21 0 12 0;
#X connect 22 0 23 0;
#X connect 23 0 13 0;
#X connect 24 0 7 0;
#X connect 24 1 10 0;
#X connect 24 2 11 0;
#X connect 24 3 12 0;
#X connect 24 4 13 0;
#X connect 25 0 2 0;
#X connect 26 0 3 0;
#X connect 27 0 4 0;
#X connect 28 0 5 0;
#X connect 29 0 6 0;
#X connect 30 0 34 0;
#X connect 31 0 32 0;
#X connect 32 0 33 1;
#X connect 33 0 9 0;
#X connect 33 0 9 1;
#X connect 34 0 31 0;
#X connect 35 0 37 0;
#X connect 36 0 35 0;
#X connect 37 0 24 0;
#X connect 39 0 42 0;
#X connect 40 0 39 0;
#X connect 42 0 24 0;
#X connect 43 0 36 0;
#X connect 44 0 43 0;
#X connect 45 0 46 0;
#X connect 46 0 40 0;
#X connect 47 0 36 0;
#X connect 48 0 49 0;
#X connect 49 0 50 0;
#X connect 50 0 40 0;
